# Blender v2.79 (sub 0) OBJ File: 'AssetPackDungeon.blend'
# www.blender.org
o Sword_004_Low_Poly_Cube
v 0.301775 12.299498 0.077569
v 0.604591 0.493000 0.418826
v 0.683863 0.426194 0.494431
v 0.683827 0.334146 0.509438
v 0.311942 0.493000 0.185068
v 0.604591 0.231705 0.418826
v 0.253295 0.231705 0.177683
v 0.243791 0.227292 0.131976
v 0.225766 -0.499143 0.105823
v 0.257918 -1.521421 0.150388
v 0.257918 -1.971683 0.150388
v 0.323871 0.493001 0.110037
v 0.251673 -1.458733 0.131976
v 0.301775 9.304985 0.077569
v 0.301775 6.170330 0.077569
v 0.301775 3.035675 0.077569
v 0.196668 -1.989568 0.088851
v -0.301775 12.299498 0.077569
v -0.000000 12.299498 0.077569
v -0.604591 0.493000 0.418826
v 0.000000 0.493000 0.554344
v 0.000000 0.426194 0.654412
v -0.683863 0.426194 0.494431
v 0.000000 0.334146 0.674275
v -0.683827 0.334146 0.509438
v -0.311942 0.493000 0.185068
v 0.000000 0.493000 0.206671
v -0.604591 0.231705 0.418826
v 0.000000 0.231705 0.554344
v -0.253295 0.231705 0.177683
v 0.000000 0.231705 0.204625
v -0.243791 0.227292 0.131976
v 0.000000 0.227292 0.191558
v -0.225766 -0.499143 0.105823
v 0.000000 -0.499143 0.153598
v -0.257918 -1.521421 0.150388
v 0.000000 -1.521421 0.218283
v -0.257918 -1.971683 0.150388
v 0.000000 -1.971683 0.218283
v -0.000000 0.493001 0.110037
v -0.323871 0.493001 0.110037
v -0.251673 -1.458733 0.131976
v 0.000000 -1.458733 0.191558
v -0.301775 9.304985 0.077569
v -0.301775 6.170330 0.077569
v -0.301775 3.035675 0.077569
v -0.000000 9.304985 0.077569
v -0.000000 6.170330 0.077569
v -0.000000 3.035675 0.077569
v -0.196668 -1.989568 0.088851
v 0.000000 -2.003375 0.088851
v -0.301775 13.409962 0.077569
v 0.126855 12.874443 0.077569
v -0.301775 0.673381 0.077569
v -0.000000 0.673381 0.077569
v 0.301775 0.673381 0.077569
v -0.323871 0.673381 0.110037
v -0.000000 0.673381 0.110037
v 0.323871 0.673381 0.110037
v 0.000000 -1.061291 0.175836
v 0.233094 -1.061291 0.121144
v -0.233094 -1.061291 0.121144
v 0.229245 -0.100316 0.120181
v 0.000000 -0.100316 0.174439
v -0.229245 -0.100316 0.120181
v 0.301775 12.299498 -0.077569
v 0.604591 0.493000 -0.418826
v 0.683863 0.426194 -0.494431
v 0.683827 0.334146 -0.509438
v 0.311942 0.493000 -0.185068
v 0.604591 0.231705 -0.418826
v 0.253295 0.231705 -0.177683
v 0.243791 0.227292 -0.131976
v 0.225766 -0.499143 -0.105823
v 0.257918 -1.521421 -0.150388
v 0.257918 -1.971683 -0.150388
v 0.323871 0.493001 -0.110037
v 0.251673 -1.458733 -0.131976
v 0.301775 9.304985 -0.077569
v 0.301775 6.170330 -0.077569
v 0.301775 3.035675 -0.077569
v 0.196668 -1.989568 -0.088851
v -0.301775 12.299498 -0.077569
v -0.000000 12.299498 -0.077569
v -0.604591 0.493000 -0.418826
v 0.000000 0.493000 -0.554344
v 0.000000 0.426194 -0.654412
v -0.683863 0.426194 -0.494431
v 0.000000 0.334146 -0.674275
v -0.683827 0.334146 -0.509438
v -0.311942 0.493000 -0.185068
v 0.000000 0.493000 -0.206671
v -0.604591 0.231705 -0.418826
v 0.000000 0.231705 -0.554344
v -0.253295 0.231705 -0.177683
v 0.000000 0.231705 -0.204625
v -0.243791 0.227292 -0.131976
v 0.000000 0.227292 -0.191558
v -0.225766 -0.499143 -0.105823
v 0.000000 -0.499143 -0.153598
v -0.257918 -1.521421 -0.150388
v 0.000000 -1.521421 -0.218283
v -0.257918 -1.971683 -0.150388
v 0.000000 -1.971683 -0.218283
v -0.000000 0.493001 -0.110037
v -0.323871 0.493001 -0.110037
v -0.251673 -1.458733 -0.131976
v 0.000000 -1.458733 -0.191558
v -0.301775 9.304985 -0.077569
v -0.301775 6.170330 -0.077569
v -0.301775 3.035675 -0.077569
v -0.000000 9.304985 -0.077569
v -0.000000 6.170330 -0.077569
v -0.000000 3.035675 -0.077569
v -0.196668 -1.989568 -0.088851
v 0.000000 -2.003375 -0.088851
v -0.301775 13.409962 -0.077569
v 0.126855 12.874443 -0.077569
v 0.453766 12.299498 0.000000
v 0.960364 0.493000 0.000000
v 1.091058 0.426194 0.000000
v 1.095946 0.334146 0.000000
v 0.576603 0.493000 0.000000
v 0.960364 0.231705 0.000000
v 0.385533 0.231705 0.000000
v 0.324021 0.227292 0.000000
v 0.289832 -0.499143 0.000000
v 0.352753 -1.521421 0.000000
v 0.352753 -1.971683 0.000000
v 0.486991 0.493001 0.000000
v 0.334496 -1.458733 0.000000
v 0.453766 3.035675 0.000000
v 0.453766 6.170330 0.000000
v 0.453766 9.304985 0.000000
v 0.199428 -1.989568 0.000000
v -0.453766 12.299498 0.000000
v -0.960364 0.493000 0.000000
v -1.091058 0.426194 0.000000
v -1.095946 0.334146 0.000000
v -0.576603 0.493000 0.000000
v -0.960364 0.231705 0.000000
v -0.385533 0.231705 0.000000
v -0.324021 0.227292 0.000000
v -0.289832 -0.499143 0.000000
v -0.352753 -1.521421 0.000000
v -0.352753 -1.971683 0.000000
v -0.486991 0.493001 0.000000
v -0.334496 -1.458733 0.000000
v -0.453766 3.035675 0.000000
v -0.453766 6.170330 0.000000
v -0.453766 9.304985 0.000000
v -0.199428 -1.989568 0.000000
v 0.000000 -2.003375 0.000000
v -0.453428 13.733585 0.000000
v -0.453766 13.409962 0.000000
v -0.302479 13.608917 0.000000
v 0.212042 12.976122 0.000000
v -0.301775 0.673381 -0.077569
v -0.000000 0.673381 -0.077569
v -0.453766 0.673382 0.000000
v 0.453766 0.673382 0.000000
v 0.301775 0.673381 -0.077569
v -0.323871 0.673381 -0.110037
v -0.000000 0.673381 -0.110037
v -0.486991 0.673382 0.000000
v 0.486991 0.673382 0.000000
v 0.323871 0.673381 -0.110037
v 0.305612 -1.061291 0.000000
v 0.000000 -1.061291 -0.175836
v 0.233094 -1.061291 -0.121144
v -0.305612 -1.061291 0.000000
v -0.233094 -1.061291 -0.121144
v 0.229245 -0.100316 -0.120181
v 0.300188 -0.100316 0.000000
v 0.000000 -0.100316 -0.174439
v -0.229245 -0.100316 -0.120181
v -0.300188 -0.100316 0.000000
vt 0.467954 0.418206
vt 0.648790 0.638081
vt 0.448640 0.437472
vt 0.679038 0.607914
vt 0.858705 0.810054
vt 0.668095 0.618825
vt 0.839512 0.829272
vt 0.267438 0.217771
vt 0.248437 0.236749
vt 0.478874 0.407306
vt 0.629487 0.657339
vt 0.820341 0.848655
vt 0.618576 0.668229
vt 0.228884 0.256376
vt 0.091469 0.080071
vt 0.429327 0.456741
vt 0.418410 0.467639
vt 0.218202 0.267164
vt 0.883981 0.857210
vt 0.869835 0.799382
vt 0.908819 0.952643
vt 0.881126 0.928657
vt 0.891411 0.917352
vt 0.897793 0.857542
vt 0.905865 0.929797
vt 0.070168 0.099827
vt 0.060278 0.112385
vt 0.111138 0.058673
vt 0.123623 0.048783
vt 0.278583 0.206714
vt 0.809597 0.859580
vt 0.812946 0.233305
vt 0.712090 0.212362
vt 0.819084 0.213769
vt 0.919328 0.248485
vt 0.940065 0.223081
vt 0.818245 0.198560
vt 0.712074 0.196706
vt 0.942003 0.202899
vt 0.776968 0.290086
vt 0.712109 0.231072
vt 0.848749 0.308090
vt 0.814896 0.173115
vt 0.923356 0.168478
vt 0.812641 0.075112
vt 0.712049 0.171874
vt 0.768837 0.105420
vt 0.711978 0.101802
vt 0.711981 0.104896
vt 0.142499 0.735076
vt 0.202454 0.832020
vt 0.142439 0.832404
vt 0.771223 0.095147
vt 0.202775 0.598332
vt 0.142583 0.597926
vt 0.201193 0.735026
vt 0.236575 0.830837
vt 0.712194 0.315033
vt 0.712172 0.293606
vt 0.829124 0.315608
vt 0.784387 0.304943
vt 0.204613 0.502751
vt 0.237228 0.599323
vt 0.611277 0.233509
vt 0.605098 0.213986
vt 0.504925 0.248905
vt 0.484137 0.223543
vt 0.605907 0.198775
vt 0.482157 0.203365
vt 0.647370 0.290218
vt 0.575626 0.308367
vt 0.609204 0.173323
vt 0.500735 0.168907
vt 0.611261 0.075316
vt 0.655126 0.105536
vt 0.082424 0.831947
vt 0.652719 0.095267
vt 0.082391 0.598258
vt 0.142642 0.502290
vt 0.048305 0.830721
vt 0.083804 0.734954
vt 0.595265 0.315845
vt 0.047937 0.599207
vt 0.080670 0.502675
vt 0.231416 0.734912
vt 0.080587 0.910649
vt 0.142391 0.911180
vt 0.204195 0.910725
vt 0.241521 0.909304
vt 0.712090 0.212362
vt 0.812946 0.233305
vt 0.819084 0.213769
vt 0.818245 0.198560
vt 0.712074 0.196706
vt 0.712109 0.231072
vt 0.776968 0.290086
vt 0.814896 0.173115
vt 0.768837 0.105420
vt 0.712049 0.171874
vt 0.711978 0.101802
vt 0.711981 0.104896
vt 0.202454 0.832020
vt 0.142499 0.735076
vt 0.142439 0.832404
vt 0.771223 0.095147
vt 0.202775 0.598332
vt 0.142583 0.597926
vt 0.201193 0.735026
vt 0.712194 0.315033
vt 0.712172 0.293606
vt 0.204613 0.502751
vt 0.611277 0.233509
vt 0.605098 0.213986
vt 0.605907 0.198775
vt 0.647370 0.290218
vt 0.609204 0.173323
vt 0.655126 0.105536
vt 0.082424 0.831947
vt 0.652719 0.095267
vt 0.082391 0.598258
vt 0.142642 0.502290
vt 0.080670 0.502675
vt 0.083804 0.734954
vt 0.639981 0.305089
vt 0.053582 0.734803
vt 0.080587 0.910649
vt 0.043263 0.909182
vt 0.142391 0.911180
vt 0.204195 0.910725
vt 0.800778 0.071063
vt 0.242019 0.503923
vt 0.623115 0.071243
vt 0.639981 0.305089
vt 0.043263 0.503801
vt 0.784387 0.304943
vt 0.495498 0.877133
vt 0.542680 0.859027
vt 0.539818 0.877378
vt 0.425084 0.877378
vt 0.493876 0.859577
vt 0.355117 0.869453
vt 0.310192 0.846308
vt 0.358644 0.852179
vt 0.426101 0.858780
vt 0.495498 0.877133
vt 0.493876 0.859577
vt 0.425084 0.877378
vt 0.426101 0.858780
vt 0.355117 0.869453
vt 0.311035 0.864861
vt 0.358644 0.852179
vt 0.487678 0.756883
vt 0.431520 0.759728
vt 0.479142 0.739268
vt 0.526817 0.740316
vt 0.488252 0.718159
vt 0.434431 0.706519
vt 0.433137 0.730182
vt 0.376008 0.750774
vt 0.386414 0.734196
vt 0.338910 0.730036
vt 0.379662 0.712218
vt 0.487678 0.756883
vt 0.431520 0.759728
vt 0.479142 0.739268
vt 0.376008 0.750774
vt 0.386414 0.734196
vt 0.433137 0.730182
vt 0.109826 0.055353
vt 0.124960 0.045753
vt 0.089417 0.078029
vt 0.066837 0.098527
vt 0.057243 0.113730
vt 0.076271 0.064928
vt 0.099060 0.042679
vt 0.114632 0.031062
vt 0.042506 0.103415
vt 0.054109 0.087787
vt 0.648790 0.638081
vt 0.467954 0.418206
vt 0.448640 0.437472
vt 0.858705 0.810054
vt 0.668095 0.618825
vt 0.839512 0.829272
vt 0.267438 0.217771
vt 0.248437 0.236749
vt 0.629487 0.657339
vt 0.820341 0.848655
vt 0.091469 0.080071
vt 0.228884 0.256376
vt 0.429327 0.456741
vt 0.883981 0.857210
vt 0.891411 0.917352
vt 0.070168 0.099827
vt 0.111138 0.058673
vt 0.109826 0.055353
vt 0.089417 0.078029
vt 0.066837 0.098527
vt 0.076271 0.064928
vt 0.099060 0.042679
vt 0.054109 0.087787
vn 0.2338 0.0000 0.9723
vn 0.0000 0.0000 1.0000
vn 0.4546 0.0000 0.8907
vn 0.2538 0.0414 0.9664
vn -0.2338 0.0000 0.9723
vn -0.4546 0.0000 0.8907
vn 0.2730 0.1381 0.9520
vn 0.4598 0.0652 0.8856
vn -0.0902 0.1920 0.9772
vn -0.4546 0.0002 0.8907
vn -0.0189 0.1706 0.9852
vn 0.4529 0.2707 0.8495
vn 0.3195 0.3452 0.8825
vn 0.1561 0.9431 0.2934
vn 0.0000 0.5355 0.8446
vn 0.4735 0.5043 0.7221
vn 0.3248 0.9458 -0.0000
vn 0.8838 0.4678 -0.0000
vn 0.4990 -0.3214 0.8048
vn 0.0000 -0.2960 0.9552
vn 0.9327 -0.3607 0.0000
vn 0.0000 1.0000 0.0000
vn 0.0000 0.9452 0.3265
vn 0.2023 -0.9129 0.3546
vn 0.4279 -0.9038 0.0000
vn 0.0229 -0.9997 0.0000
vn 0.0000 -0.9219 0.3874
vn 0.0189 -0.9993 0.0336
vn -0.0000 -0.6583 0.7528
vn 0.0000 -0.9885 0.1514
vn -0.0000 -0.0051 1.0000
vn 0.5886 -0.0482 0.8070
vn -0.0000 -0.0522 0.9986
vn 0.3773 -0.7794 0.5002
vn 0.5857 0.0417 0.8095
vn 0.0000 0.0395 0.9992
vn 0.5816 -0.0017 0.8135
vn 0.9988 -0.0486 0.0000
vn 0.5874 0.0527 0.8075
vn 0.9989 0.0474 0.0000
vn -0.1561 0.9431 0.2934
vn -0.4735 0.5043 0.7221
vn -0.3248 0.9458 0.0000
vn -0.8838 0.4678 0.0000
vn -0.4990 -0.3214 0.8048
vn -0.9327 -0.3607 -0.0000
vn -0.2023 -0.9129 0.3546
vn -0.4279 -0.9038 -0.0000
vn -0.0229 -0.9997 -0.0000
vn -0.0189 -0.9993 0.0336
vn -0.5886 -0.0482 0.8070
vn -0.3773 -0.7794 0.5002
vn -0.5857 0.0417 0.8095
vn 0.0000 0.0387 0.9993
vn -0.9988 -0.0486 0.0000
vn -0.5816 -0.0017 0.8135
vn -0.9989 0.0474 -0.0000
vn -0.5874 0.0527 0.8075
vn 1.0000 0.0011 -0.0000
vn 0.5521 -0.8338 -0.0000
vn 0.0000 0.5355 -0.8446
vn 0.1561 0.9431 -0.2934
vn 0.4735 0.5043 -0.7221
vn 0.4990 -0.3214 -0.8048
vn -0.0000 -0.2960 -0.9552
vn 0.0000 0.9452 -0.3265
vn 0.2023 -0.9129 -0.3546
vn 0.0189 -0.9993 -0.0336
vn 0.0000 -0.9219 -0.3874
vn -0.0000 -0.6583 -0.7528
vn 0.0000 -0.9885 -0.1514
vn 0.5886 -0.0482 -0.8070
vn 0.0000 -0.0051 -1.0000
vn 0.0000 -0.0522 -0.9986
vn 0.3773 -0.7794 -0.5002
vn 0.5857 0.0417 -0.8095
vn 0.0000 0.0395 -0.9992
vn 0.5816 -0.0017 -0.8135
vn 0.5874 0.0527 -0.8075
vn -0.1561 0.9431 -0.2934
vn -0.4735 0.5043 -0.7221
vn -0.4990 -0.3214 -0.8048
vn -0.2023 -0.9129 -0.3546
vn -0.0189 -0.9993 -0.0336
vn -0.5886 -0.0482 -0.8070
vn -0.3773 -0.7794 -0.5002
vn -0.5857 0.0417 -0.8095
vn 0.0000 0.0387 -0.9993
vn -0.5874 0.0527 -0.8075
vn -0.5816 -0.0017 -0.8135
vn -1.0000 0.0011 0.0000
vn -0.5521 -0.8338 0.0000
vn 0.9974 0.0725 0.0000
vn -0.9974 0.0725 -0.0000
vn 0.5754 0.2834 0.7672
vn 0.9605 0.2781 -0.0000
vn 0.9601 0.2796 0.0000
vn -0.0000 0.3790 0.9254
vn 0.5426 0.2940 0.7869
vn -0.5754 0.2834 0.7672
vn -0.9605 0.2781 0.0000
vn -0.5426 0.2940 0.7869
vn 0.0000 0.3922 0.9199
vn 0.5754 0.2834 -0.7672
vn 0.5426 0.2940 -0.7869
vn 0.0000 0.3790 -0.9254
vn 0.0000 0.3922 -0.9199
vn -0.5754 0.2834 -0.7672
vn -0.9601 0.2796 0.0000
vn -0.5426 0.2940 -0.7869
vn 0.4895 -0.5673 0.6623
vn 1.0000 0.0000 -0.0000
vn 0.5914 -0.0000 0.8064
vn -0.0000 -0.5740 0.8189
vn 0.0962 -0.9893 0.1097
vn 0.8278 -0.5611 0.0000
vn 0.0929 -0.9957 0.0000
vn 0.0000 -1.0000 0.0000
vn -0.0000 -0.9929 0.1191
vn -1.0000 0.0000 0.0000
vn -0.4895 -0.5673 0.6623
vn -0.5914 -0.0000 0.8064
vn -0.0962 -0.9893 0.1097
vn -0.8278 -0.5611 -0.0000
vn -0.0929 -0.9957 -0.0000
vn 0.4895 -0.5673 -0.6623
vn 0.5914 -0.0000 -0.8064
vn 0.0000 -0.5740 -0.8189
vn 0.0000 -0.0000 -1.0000
vn 0.0962 -0.9893 -0.1097
vn -0.4895 -0.5673 -0.6623
vn -0.5914 -0.0000 -0.8064
vn -0.0962 -0.9893 -0.1097
vn 0.0000 -0.9929 -0.1191
vn 0.2924 0.0000 0.9563
vn 0.5592 0.0000 0.8290
vn -0.2924 0.0000 0.9563
vn -0.5592 0.0000 0.8290
vn 0.2338 0.0000 -0.9723
vn 0.2538 0.0414 -0.9664
vn 0.4546 0.0000 -0.8907
vn -0.2338 0.0000 -0.9723
vn -0.4546 0.0000 -0.8907
vn 0.2730 0.1381 -0.9520
vn 0.4598 0.0652 -0.8856
vn 0.4529 0.2707 -0.8495
vn -0.0902 0.1920 -0.9772
vn -0.0189 0.1706 -0.9852
vn -0.4546 0.0002 -0.8907
vn 0.3195 0.3452 -0.8825
vn 0.2924 0.0000 -0.9563
vn 0.5592 0.0000 -0.8290
vn -0.5592 0.0000 -0.8290
vn -0.2924 0.0000 -0.9563
s 1
f 15/1/1 47/2/2 48/3/2
f 134/4/3 1/5/4 14/6/1
f 14/6/1 19/7/2 47/2/2
f 16/8/1 48/3/2 49/9/2
f 16/8/1 133/10/3 15/1/1
f 133/10/3 14/6/1 15/1/1
f 44/11/5 48/3/2 47/2/2
f 18/12/5 151/13/6 44/11/5
f 46/14/5 55/15/2 49/9/2
f 19/7/2 44/11/5 47/2/2
f 45/16/5 49/9/2 48/3/2
f 46/14/5 150/17/6 149/18/6
f 44/11/5 150/17/6 45/16/5
f 53/19/7 18/12/5 19/7/2
f 1/5/4 53/19/7 19/7/2
f 119/20/8 53/19/7 1/5/4
f 154/21/9 155/22/10 52/23/11
f 157/24/12 52/23/11 53/19/7
f 155/22/10 18/12/5 52/23/11
f 156/25/13 154/21/9 52/23/11
f 54/26/5 149/18/6 160/27/6
f 56/28/1 49/9/2 55/15/2
f 161/29/3 16/8/1 56/28/1
f 15/1/1 14/6/1 47/2/2
f 134/4/3 119/20/8 1/5/4
f 14/6/1 1/5/4 19/7/2
f 16/8/1 15/1/1 48/3/2
f 16/8/1 132/30/3 133/10/3
f 133/10/3 134/4/3 14/6/1
f 44/11/5 45/16/5 48/3/2
f 18/12/5 136/31/6 151/13/6
f 46/14/5 54/26/5 55/15/2
f 19/7/2 18/12/5 44/11/5
f 45/16/5 46/14/5 49/9/2
f 46/14/5 45/16/5 150/17/6
f 44/11/5 151/13/6 150/17/6
f 53/19/7 52/23/11 18/12/5
f 119/20/8 157/24/12 53/19/7
f 157/24/12 156/25/13 52/23/11
f 155/22/10 136/31/6 18/12/5
f 54/26/5 46/14/5 149/18/6
f 56/28/1 16/8/1 49/9/2
f 161/29/3 132/30/3 16/8/1
s 2
f 2/32/14 22/33/15 3/34/16
f 120/35/17 3/34/16 121/36/18
f 4/37/19 22/33/15 24/38/20
f 3/34/16 122/39/21 121/36/18
f 5/40/22 21/41/23 2/32/14
f 123/42/22 2/32/14 120/35/17
f 24/38/20 6/43/24 4/37/19
f 4/37/19 124/44/25 122/39/21
f 6/43/24 125/45/26 124/44/25
f 29/46/27 7/47/28 6/43/24
f 33/48/29 7/47/28 31/49/30
f 35/50/31 63/51/32 64/52/33
f 8/53/34 125/45/26 7/47/28
f 61/54/35 35/50/31 60/55/36
f 9/56/37 174/57/38 63/51/32
f 5/40/22 40/58/22 27/59/22
f 5/40/22 130/60/22 12/61/22
f 13/62/39 168/63/40 61/54/35
f 22/33/15 20/64/41 23/65/42
f 23/65/42 137/66/43 138/67/44
f 22/33/15 25/68/45 24/38/20
f 23/65/42 139/69/46 25/68/45
f 21/41/23 26/70/22 20/64/41
f 20/64/41 140/71/22 137/66/43
f 28/72/47 24/38/20 25/68/45
f 141/73/48 25/68/45 139/69/46
f 142/74/49 28/72/47 141/73/48
f 30/75/50 29/46/27 28/72/47
f 30/75/50 33/48/29 31/49/30
f 65/76/51 35/50/31 64/52/33
f 142/74/49 32/77/52 30/75/50
f 62/78/53 43/79/54 60/55/36
f 177/80/55 34/81/56 65/76/51
f 40/58/22 26/70/22 27/59/22
f 26/70/22 147/82/22 140/71/22
f 171/83/57 42/84/58 62/78/53
f 34/81/56 171/83/57 62/78/53
f 62/78/53 35/50/31 34/81/56
f 9/56/37 168/63/40 127/85/59
f 43/79/54 61/54/35 60/55/36
f 32/86/52 177/80/55 65/76/51
f 33/87/29 65/76/51 64/52/33
f 8/88/34 174/57/38 126/89/60
f 33/87/29 63/51/32 8/88/34
f 87/90/61 67/91/62 68/92/63
f 68/92/63 120/35/17 121/36/18
f 87/90/61 69/93/64 89/94/65
f 68/92/63 122/39/21 69/93/64
f 86/95/66 70/96/22 67/91/62
f 67/91/62 123/42/22 120/35/17
f 71/97/67 89/94/65 69/93/64
f 124/44/25 69/93/64 122/39/21
f 125/45/26 71/97/67 124/44/25
f 72/98/68 94/99/69 71/97/67
f 72/98/68 98/100/70 96/101/71
f 173/102/72 100/103/73 175/104/74
f 125/45/26 73/105/75 72/98/68
f 100/103/73 170/106/76 169/107/77
f 174/57/38 74/108/78 173/102/72
f 105/109/22 70/96/22 92/110/22
f 70/96/22 130/60/22 123/42/22
f 168/63/40 78/111/79 170/106/76
f 85/112/80 87/90/61 88/113/81
f 137/66/43 88/113/81 138/67/44
f 87/90/61 90/114/82 88/113/81
f 88/113/81 139/69/46 138/67/44
f 86/95/66 91/115/22 92/110/22
f 85/112/80 140/71/22 91/115/22
f 89/94/65 93/116/83 90/114/82
f 90/114/82 141/73/48 139/69/46
f 93/116/83 142/74/49 141/73/48
f 95/117/84 94/99/69 96/101/71
f 98/100/70 95/117/84 96/101/71
f 100/103/73 176/118/85 175/104/74
f 97/119/86 142/74/49 95/117/84
f 172/120/87 108/121/88 107/122/89
f 99/123/90 177/80/55 176/118/85
f 91/115/22 105/109/22 92/110/22
f 91/115/22 147/82/22 106/124/22
f 107/122/89 171/83/57 172/120/87
f 99/123/90 171/83/57 144/125/91
f 100/103/73 172/120/87 99/123/90
f 74/108/78 168/63/40 170/106/76
f 108/121/88 170/106/76 78/111/79
f 97/126/86 177/80/55 143/127/92
f 98/128/70 176/118/85 97/126/86
f 73/129/75 174/57/38 173/102/72
f 98/128/70 173/102/72 175/104/74
f 2/32/14 21/41/23 22/33/15
f 120/35/17 2/32/14 3/34/16
f 4/37/19 3/34/16 22/33/15
f 3/34/16 4/37/19 122/39/21
f 5/40/22 27/59/22 21/41/23
f 123/42/22 5/40/22 2/32/14
f 24/38/20 29/46/27 6/43/24
f 4/37/19 6/43/24 124/44/25
f 6/43/24 7/47/28 125/45/26
f 29/46/27 31/49/30 7/47/28
f 33/48/29 8/53/34 7/47/28
f 35/50/31 9/56/37 63/51/32
f 8/53/34 126/130/60 125/45/26
f 61/54/35 9/56/37 35/50/31
f 9/56/37 127/85/59 174/57/38
f 5/40/22 12/61/22 40/58/22
f 5/40/22 123/42/22 130/60/22
f 13/62/39 131/131/93 168/63/40
f 22/33/15 21/41/23 20/64/41
f 23/65/42 20/64/41 137/66/43
f 22/33/15 23/65/42 25/68/45
f 23/65/42 138/67/44 139/69/46
f 21/41/23 27/59/22 26/70/22
f 20/64/41 26/70/22 140/71/22
f 28/72/47 29/46/27 24/38/20
f 141/73/48 28/72/47 25/68/45
f 142/74/49 30/75/50 28/72/47
f 30/75/50 31/49/30 29/46/27
f 30/75/50 32/77/52 33/48/29
f 65/76/51 34/81/56 35/50/31
f 142/74/49 143/132/92 32/77/52
f 62/78/53 42/84/58 43/79/54
f 177/80/55 144/125/91 34/81/56
f 40/58/22 41/133/22 26/70/22
f 26/70/22 41/133/22 147/82/22
f 171/83/57 148/134/94 42/84/58
f 34/81/56 144/125/91 171/83/57
f 62/78/53 60/55/36 35/50/31
f 9/56/37 61/54/35 168/63/40
f 43/79/54 13/62/39 61/54/35
f 32/86/52 143/127/92 177/80/55
f 33/87/29 32/86/52 65/76/51
f 8/88/34 63/51/32 174/57/38
f 33/87/29 64/52/33 63/51/32
f 87/90/61 86/95/66 67/91/62
f 68/92/63 67/91/62 120/35/17
f 87/90/61 68/92/63 69/93/64
f 68/92/63 121/36/18 122/39/21
f 86/95/66 92/110/22 70/96/22
f 67/91/62 70/96/22 123/42/22
f 71/97/67 94/99/69 89/94/65
f 124/44/25 71/97/67 69/93/64
f 125/45/26 72/98/68 71/97/67
f 72/98/68 96/101/71 94/99/69
f 72/98/68 73/105/75 98/100/70
f 173/102/72 74/108/78 100/103/73
f 125/45/26 126/130/60 73/105/75
f 100/103/73 74/108/78 170/106/76
f 174/57/38 127/85/59 74/108/78
f 105/109/22 77/135/22 70/96/22
f 70/96/22 77/135/22 130/60/22
f 168/63/40 131/131/93 78/111/79
f 85/112/80 86/95/66 87/90/61
f 137/66/43 85/112/80 88/113/81
f 87/90/61 89/94/65 90/114/82
f 88/113/81 90/114/82 139/69/46
f 86/95/66 85/112/80 91/115/22
f 85/112/80 137/66/43 140/71/22
f 89/94/65 94/99/69 93/116/83
f 90/114/82 93/116/83 141/73/48
f 93/116/83 95/117/84 142/74/49
f 95/117/84 93/116/83 94/99/69
f 98/100/70 97/119/86 95/117/84
f 100/103/73 99/123/90 176/118/85
f 97/119/86 143/132/92 142/74/49
f 172/120/87 169/107/77 108/121/88
f 99/123/90 144/125/91 177/80/55
f 91/115/22 106/124/22 105/109/22
f 91/115/22 140/71/22 147/82/22
f 107/122/89 148/134/94 171/83/57
f 99/123/90 172/120/87 171/83/57
f 100/103/73 169/107/77 172/120/87
f 74/108/78 127/85/59 168/63/40
f 108/121/88 169/107/77 170/106/76
f 97/126/86 176/118/85 177/80/55
f 98/128/70 175/104/74 176/118/85
f 73/129/75 126/89/60 174/57/38
f 98/128/70 73/129/75 173/102/72
s 3
f 13/136/95 128/137/96 131/138/97
f 43/139/98 10/140/99 13/136/95
f 42/141/100 145/142/101 36/143/102
f 43/139/98 36/143/102 37/144/103
f 78/145/104 128/137/96 75/146/105
f 108/147/106 75/146/105 102/148/107
f 107/149/108 145/142/101 148/150/109
f 108/147/106 101/151/110 107/149/108
f 13/136/95 10/140/99 128/137/96
f 43/139/98 37/144/103 10/140/99
f 42/141/100 148/150/109 145/142/101
f 43/139/98 42/141/100 36/143/102
f 78/145/104 131/138/97 128/137/96
f 108/147/106 78/145/104 75/146/105
f 107/149/108 101/151/110 145/142/101
f 108/147/106 102/148/107 101/151/110
s 4
f 11/152/111 128/137/112 10/140/113
f 39/153/114 10/140/113 37/144/2
f 39/153/114 17/154/115 11/152/111
f 129/155/116 17/154/115 135/156/117
f 153/157/118 17/154/115 51/158/119
f 145/142/120 38/159/121 36/143/122
f 36/143/122 39/153/114 37/144/2
f 50/160/123 39/153/114 38/159/121
f 146/161/124 50/160/123 38/159/121
f 153/157/118 50/160/123 152/162/125
f 128/137/112 76/163/126 75/146/127
f 75/146/127 104/164/128 102/148/129
f 82/165/130 104/164/128 76/163/126
f 129/155/116 82/165/130 76/163/126
f 153/157/118 82/165/130 135/156/117
f 103/166/131 145/142/120 101/151/132
f 104/164/128 101/151/132 102/148/129
f 115/167/133 104/164/128 116/168/134
f 146/161/124 115/167/133 152/162/125
f 153/157/118 115/167/133 116/168/134
f 11/152/111 129/155/116 128/137/112
f 39/153/114 11/152/111 10/140/113
f 39/153/114 51/158/119 17/154/115
f 129/155/116 11/152/111 17/154/115
f 153/157/118 135/156/117 17/154/115
f 145/142/120 146/161/124 38/159/121
f 36/143/122 38/159/121 39/153/114
f 50/160/123 51/158/119 39/153/114
f 146/161/124 152/162/125 50/160/123
f 153/157/118 51/158/119 50/160/123
f 128/137/112 129/155/116 76/163/126
f 75/146/127 76/163/126 104/164/128
f 82/165/130 116/168/134 104/164/128
f 129/155/116 135/156/117 82/165/130
f 153/157/118 116/168/134 82/165/130
f 103/166/131 146/161/124 145/142/120
f 104/164/128 103/166/131 101/151/132
f 115/167/133 103/166/131 104/164/128
f 146/161/124 103/166/131 115/167/133
f 153/157/118 152/162/125 115/167/133
s 5
f 161/29/22 59/169/22 166/170/22
f 56/28/22 58/171/22 59/169/22
f 54/26/22 58/171/22 55/15/22
f 160/27/22 57/172/22 54/26/22
f 161/29/22 56/28/22 59/169/22
f 56/28/22 55/15/22 58/171/22
f 54/26/22 57/172/22 58/171/22
f 160/27/22 165/173/22 57/172/22
s 6
f 59/169/135 40/174/2 12/175/135
f 130/176/136 59/169/135 12/175/135
f 57/172/137 147/177/138 41/178/137
f 57/172/137 40/174/2 58/171/2
f 59/169/135 58/171/2 40/174/2
f 130/176/136 166/170/136 59/169/135
f 57/172/137 165/173/138 147/177/138
f 57/172/137 41/178/137 40/174/2
s 7
f 112/179/129 80/180/139 113/181/129
f 66/182/140 134/4/141 79/183/139
f 84/184/129 79/183/139 112/179/129
f 113/181/129 81/185/139 114/186/129
f 81/185/139 133/10/141 132/30/141
f 79/183/139 133/10/141 80/180/139
f 113/181/129 109/187/142 112/179/129
f 151/13/143 83/188/142 109/187/142
f 159/189/129 111/190/142 114/186/129
f 109/187/142 84/184/129 112/179/129
f 114/186/129 110/191/142 113/181/129
f 111/190/142 150/17/143 110/191/142
f 150/17/143 109/187/142 110/191/142
f 83/188/142 118/192/144 84/184/129
f 66/182/140 84/184/129 118/192/144
f 119/20/145 118/192/144 157/24/146
f 154/21/147 117/193/148 155/22/149
f 157/24/146 117/193/148 156/25/150
f 83/188/142 155/22/149 117/193/148
f 156/25/150 117/193/148 154/21/147
f 149/18/143 158/194/142 160/27/143
f 114/186/129 162/195/139 159/189/129
f 81/185/139 161/29/141 162/195/139
f 112/179/129 79/183/139 80/180/139
f 66/182/140 119/20/145 134/4/141
f 84/184/129 66/182/140 79/183/139
f 113/181/129 80/180/139 81/185/139
f 81/185/139 80/180/139 133/10/141
f 79/183/139 134/4/141 133/10/141
f 113/181/129 110/191/142 109/187/142
f 151/13/143 136/31/143 83/188/142
f 159/189/129 158/194/142 111/190/142
f 109/187/142 83/188/142 84/184/129
f 114/186/129 111/190/142 110/191/142
f 111/190/142 149/18/143 150/17/143
f 150/17/143 151/13/143 109/187/142
f 83/188/142 117/193/148 118/192/144
f 119/20/145 66/182/140 118/192/144
f 157/24/146 118/192/144 117/193/148
f 83/188/142 136/31/143 155/22/149
f 149/18/143 111/190/142 158/194/142
f 114/186/129 81/185/139 162/195/139
f 81/185/139 132/30/141 161/29/141
s 8
f 161/29/22 167/196/22 162/195/22
f 162/195/22 164/197/22 159/189/22
f 164/197/22 158/194/22 159/189/22
f 163/198/22 160/27/22 158/194/22
f 161/29/22 166/170/22 167/196/22
f 162/195/22 167/196/22 164/197/22
f 164/197/22 163/198/22 158/194/22
f 163/198/22 165/173/22 160/27/22
s 9
f 105/199/129 167/196/151 77/200/151
f 167/196/151 130/176/152 77/200/151
f 147/177/153 163/198/154 106/201/154
f 105/199/129 163/198/154 164/197/129
f 105/199/129 164/197/129 167/196/151
f 167/196/151 166/170/152 130/176/152
f 147/177/153 165/173/153 163/198/154
f 105/199/129 106/201/154 163/198/154
