# Blender v2.79 (sub 0) OBJ File: 'AssetPackDungeon.blend'
# www.blender.org
o Sword_005_Low_Poly_Cube.005
v 0.000000 0.944750 0.310393
v 0.315618 -2.047938 0.165232
v 0.224952 0.254942 0.239701
v 0.954961 0.830025 0.250169
v 0.978515 -0.007581 0.172742
v 0.210798 0.256253 0.067481
v 0.236445 -0.464205 0.075829
v 0.253393 -1.078245 0.096334
v 0.290020 -1.725297 0.154020
v 0.791590 1.155856 0.233844
v 0.708606 5.572309 0.090519
v 0.022641 5.572309 0.090519
v 0.000000 1.155856 0.302080
v 0.612923 1.155856 0.250169
v 0.729396 0.178268 0.172742
v 0.670716 0.914428 0.258014
v 0.569586 1.266040 0.090519
v 0.000000 1.266040 0.090519
v -0.001693 2.481103 0.090519
v 0.546742 2.481103 0.090519
v 0.000000 0.393967 0.324210
v 1.082331 0.121698 0.250169
v 0.773041 0.320304 0.260518
v -0.315618 -2.047938 0.165232
v -0.237135 0.247816 0.239701
v 0.000000 -2.047938 0.225823
v 0.000000 0.265300 0.250976
v -1.058161 0.805441 0.243412
v -1.198353 -0.062540 0.172742
v -0.215377 0.253592 0.067481
v -0.236511 -0.464205 0.075301
v -0.253393 -1.078245 0.096334
v -0.290020 -1.725297 0.154020
v -0.000851 0.257118 0.147996
v -0.000033 -0.464205 0.141491
v 0.000000 -1.078245 0.157205
v 0.000000 -1.725297 0.213458
v -0.816769 1.155856 0.237510
v -0.488327 5.572309 0.090519
v -0.482420 1.155856 0.250169
v -0.609276 0.187638 0.204180
v -0.521448 0.933149 0.264486
v -0.546549 1.266031 0.090519
v -0.456019 2.481103 0.090519
v -1.301302 0.066955 0.240479
v -0.681087 0.297866 0.263360
v -0.545796 10.719106 0.090519
v 0.016802 10.314541 0.090519
v 0.531413 9.700111 0.090519
v 0.771361 8.701055 0.090519
v -0.536421 8.701054 0.090519
v 0.022987 8.701054 0.090519
v 0.894751 7.752067 0.090519
v -0.521836 7.752067 0.090519
v 0.044224 7.752067 0.090519
v 0.000000 0.944750 -0.310393
v 0.315618 -2.047938 -0.165232
v 0.224952 0.254942 -0.239701
v 0.954961 0.830025 -0.250169
v 0.978515 -0.007581 -0.172742
v 0.210798 0.256253 -0.067481
v 0.236445 -0.464205 -0.075829
v 0.253393 -1.078245 -0.096334
v 0.290020 -1.725297 -0.154020
v 0.791590 1.155856 -0.233844
v 0.708606 5.572309 -0.090519
v 0.022641 5.572309 -0.090519
v 0.000000 1.155856 -0.302080
v 0.612923 1.155856 -0.250169
v 0.729396 0.178268 -0.172742
v 0.670716 0.914428 -0.258014
v 0.569586 1.266040 -0.090519
v 0.000000 1.266040 -0.090519
v -0.001693 2.481103 -0.090519
v 0.546742 2.481103 -0.090519
v 0.000000 0.393967 -0.324210
v 1.082331 0.121698 -0.250169
v 0.773041 0.320304 -0.260518
v -0.315618 -2.047938 -0.165232
v -0.237135 0.247816 -0.239701
v 0.000000 -2.047938 -0.225823
v 0.000000 0.265300 -0.250976
v -1.058161 0.805441 -0.243412
v -1.198353 -0.062540 -0.172742
v -0.215377 0.253592 -0.067481
v -0.236511 -0.464205 -0.075301
v -0.253393 -1.078245 -0.096334
v -0.290020 -1.725297 -0.154020
v -0.000851 0.257118 -0.147996
v -0.000033 -0.464205 -0.141491
v 0.000000 -1.078245 -0.157205
v 0.000000 -1.725297 -0.213458
v -0.816769 1.155856 -0.237510
v -0.488327 5.572309 -0.090519
v -0.482420 1.155856 -0.250169
v -0.609276 0.187638 -0.204180
v -0.521448 0.933149 -0.264486
v -0.546549 1.266031 -0.090519
v -0.456019 2.481103 -0.090519
v -1.301302 0.066955 -0.240479
v -0.681087 0.297866 -0.263360
v -0.545796 10.719106 -0.090519
v 0.016802 10.314541 -0.090519
v 0.531413 9.700111 -0.090519
v 0.771361 8.701055 -0.090519
v -0.536421 8.701054 -0.090519
v 0.022987 8.701054 -0.090519
v 0.894751 7.752067 -0.090519
v -0.521836 7.752067 -0.090519
v 0.044224 7.752067 -0.090519
v 0.334426 -1.078245 0.000000
v -0.334426 -1.078245 0.000000
v 0.909275 5.572309 0.000000
v 0.940480 1.155856 0.000000
v 0.416549 -2.047938 0.000000
v 0.373535 0.231886 0.000000
v 1.195754 0.768477 0.000000
v 1.186115 -0.183877 0.000000
v 0.382766 -1.725297 0.000000
v 0.297235 -0.464205 0.000000
v 0.273630 0.223524 0.000000
v 0.729396 0.180587 0.000000
v 0.781306 1.256600 0.000000
v 0.721256 2.481103 0.000000
v 1.336075 -0.086125 0.000000
v -0.718454 5.572309 0.000000
v -0.983803 1.149561 0.000000
v -0.416549 -2.047938 0.000000
v -0.421666 0.215282 0.000000
v 0.000000 -2.047938 0.000000
v -1.345189 0.730705 0.000000
v -1.466256 -0.253860 0.000000
v -0.382766 -1.725297 0.000000
v -0.301241 -0.464205 0.000000
v -0.305091 0.215282 0.000000
v -0.609276 0.194186 0.000000
v -0.810222 1.252408 0.000000
v -0.672251 2.481103 0.000000
v -1.630648 -0.160100 0.000000
v -0.448137 10.961031 0.000000
v 0.097225 10.559522 0.000000
v -0.799895 11.159534 0.000000
v 0.683927 9.838367 0.000000
v 1.001154 8.701055 0.000000
v -0.800600 10.719106 0.000000
v -0.787196 8.701054 0.000000
v 1.134371 7.752067 0.000000
v -0.766346 7.752067 0.000000
v -1.189079 -0.079019 0.000000
v 0.979019 -0.006418 0.000000
vt 0.184101 0.458709
vt 0.228261 0.499063
vt 0.183825 0.501855
vt 0.788931 0.066453
vt 0.763451 0.078826
vt 0.774654 0.065923
vt 0.857206 0.092288
vt 0.917461 0.102549
vt 0.862517 0.123420
vt 0.236883 0.549027
vt 0.233384 0.668496
vt 0.183509 0.551091
vt 0.229575 0.785706
vt 0.182757 0.667834
vt 0.270386 0.546343
vt 0.260288 0.483593
vt 0.257483 0.669483
vt 0.248113 0.786255
vt 0.839341 0.223376
vt 0.858384 0.261288
vt 0.830505 0.263271
vt 0.886953 0.212002
vt 0.900238 0.281001
vt 0.908753 0.076821
vt 0.904548 0.049386
vt 0.951629 0.046750
vt 0.764487 0.108644
vt 0.727227 0.229603
vt 0.728055 0.265015
vt 0.725593 0.135925
vt 0.828778 0.298209
vt 0.728508 0.305970
vt 0.871391 0.301386
vt 0.948363 0.212778
vt 0.974671 0.068113
vt 0.725264 0.110967
vt 0.725226 0.093222
vt 0.139428 0.498493
vt 0.107601 0.482615
vt 0.670068 0.066098
vt 0.683865 0.108685
vt 0.653079 0.066454
vt 0.606477 0.122409
vt 0.511086 0.076401
vt 0.617015 0.099628
vt 0.130166 0.548343
vt 0.132139 0.667842
vt 0.134385 0.785154
vt 0.226157 0.922344
vt 0.182005 0.785243
vt 0.096701 0.545229
vt 0.108026 0.668523
vt 0.115416 0.785424
vt 0.244162 0.916464
vt 0.638870 0.229849
vt 0.592554 0.265879
vt 0.550054 0.214392
vt 0.550167 0.287260
vt 0.484564 0.215980
vt 0.456223 0.046093
vt 0.513374 0.047570
vt 0.645640 0.268309
vt 0.631534 0.301693
vt 0.581801 0.305970
vt 0.499902 0.102438
vt 0.430745 0.068360
vt 0.686456 0.078942
vt 0.135836 0.921356
vt 0.113836 0.914153
vt 0.621325 0.063866
vt 0.228261 0.499063
vt 0.763451 0.078826
vt 0.917461 0.102549
vt 0.857206 0.092288
vt 0.862517 0.123420
vt 0.183825 0.501855
vt 0.236883 0.549027
vt 0.183509 0.551091
vt 0.233384 0.668496
vt 0.182757 0.667834
vt 0.229575 0.785706
vt 0.839341 0.223376
vt 0.858384 0.261288
vt 0.886953 0.212002
vt 0.908753 0.076821
vt 0.764487 0.108644
vt 0.727227 0.229603
vt 0.830505 0.263271
vt 0.725593 0.135925
vt 0.728055 0.265015
vt 0.828778 0.298209
vt 0.725264 0.110967
vt 0.725226 0.093222
vt 0.139428 0.498493
vt 0.683865 0.108685
vt 0.686456 0.078942
vt 0.606477 0.122409
vt 0.511086 0.076401
vt 0.499902 0.102438
vt 0.130166 0.548343
vt 0.132139 0.667842
vt 0.134385 0.785154
vt 0.182005 0.785243
vt 0.226157 0.922344
vt 0.638870 0.229849
vt 0.592554 0.265879
vt 0.645640 0.268309
vt 0.550054 0.214392
vt 0.617015 0.099628
vt 0.728508 0.305970
vt 0.631534 0.301693
vt 0.135836 0.921356
vt 0.852098 0.060941
vt 0.181263 0.922344
vt 0.181263 0.922344
vt 0.245011 0.163282
vt 0.475652 0.453220
vt 0.201747 0.211574
vt 0.435392 0.498115
vt 0.147481 0.272228
vt 0.165913 0.251567
vt 0.095007 0.115686
vt 0.139775 0.065636
vt 0.260467 0.145954
vt 0.828675 0.612169
vt 0.735470 0.548377
vt 0.755653 0.525941
vt 0.750285 0.699211
vt 0.624241 0.672726
vt 0.668683 0.622983
vt 0.051978 0.163654
vt 0.028881 0.187152
vt 0.706649 0.748356
vt 0.603734 0.695652
vt 0.876880 0.732277
vt 0.903043 0.728842
vt 0.890862 0.824592
vt 0.920635 0.836541
vt 0.882648 0.904680
vt 0.912966 0.915572
vt 0.902038 0.961887
vt 0.862172 0.928686
vt 0.808933 0.633577
vt 0.685816 0.771883
vt 0.529721 0.392955
vt 0.415887 0.519840
vt 0.546982 0.373498
vt 0.157080 0.044638
vt 0.475652 0.453220
vt 0.245011 0.163282
vt 0.201747 0.211574
vt 0.435392 0.498115
vt 0.095007 0.115686
vt 0.139775 0.065636
vt 0.735470 0.548377
vt 0.624241 0.672726
vt 0.750285 0.699211
vt 0.668683 0.622983
vt 0.165913 0.251567
vt 0.051978 0.163654
vt 0.706649 0.748356
vt 0.876880 0.732277
vt 0.808933 0.633577
vt 0.890862 0.824592
vt 0.882648 0.904680
vt 0.529721 0.392955
vn 0.0000 -1.0000 0.0000
vn 0.4647 -0.5979 0.6531
vn -0.0000 -0.6507 0.7594
vn -0.1194 -0.9928 0.0000
vn 0.2644 -0.7801 0.5670
vn 0.6495 -0.7604 0.0000
vn -0.2843 -0.8048 0.5210
vn 0.3198 -0.2197 0.9217
vn -0.0174 -0.2140 0.9767
vn 0.5650 0.0800 0.8212
vn 0.5232 0.0723 0.8491
vn 0.0000 0.0674 0.9977
vn 0.5487 0.0313 0.8354
vn -0.0001 0.0620 0.9981
vn 0.9961 0.0883 0.0000
vn 0.8237 -0.5671 0.0000
vn 0.9958 0.0915 0.0000
vn 0.9990 0.0449 0.0000
vn 0.0663 0.0409 0.9970
vn 0.3639 0.5488 0.7526
vn 0.0751 0.4909 0.8679
vn 0.4523 0.2062 0.8677
vn 0.7540 0.6568 0.0000
vn -0.3195 -0.7472 0.5828
vn -0.6249 -0.7807 -0.0000
vn 0.1397 -0.9902 0.0000
vn -0.0310 -0.8507 0.5247
vn -0.0070 0.0359 0.9993
vn -0.0177 0.5170 0.8558
vn 0.0008 -0.2221 0.9750
vn 0.0884 0.8622 0.4988
vn -0.0188 0.8797 0.4751
vn 0.3884 0.9215 -0.0000
vn 0.9465 0.3228 0.0000
vn 0.8785 -0.4777 -0.0000
vn 0.0120 -0.8318 0.5549
vn 0.0121 -0.7839 0.6208
vn -0.4647 -0.5979 0.6531
vn -0.8237 -0.5671 0.0000
vn -0.3601 -0.9329 -0.0000
vn 0.0596 -0.8476 0.5272
vn 0.1006 -0.9949 -0.0000
vn 0.0013 -0.2030 0.9792
vn 0.2263 -0.7510 0.6203
vn 0.1811 -0.8278 0.5310
vn -0.5650 0.0800 0.8212
vn -0.5225 0.0714 0.8497
vn -0.5314 0.0232 0.8468
vn -0.0007 0.0202 0.9998
vn -0.9961 0.0883 -0.0000
vn -0.9961 0.0884 -0.0000
vn -0.9997 0.0258 0.0000
vn -0.0670 0.0453 0.9967
vn -0.3129 0.5645 0.7638
vn -0.4139 0.2609 0.8721
vn -0.7032 0.7110 0.0000
vn -0.9010 0.4338 0.0000
vn -0.1605 -0.9870 0.0000
vn 0.4807 -0.8769 -0.0000
vn -0.0466 0.5066 0.8609
vn -0.0524 0.8506 0.5232
vn -0.3576 0.9339 0.0000
vn -0.3235 -0.1430 0.9354
vn -0.9112 -0.4119 0.0000
vn -0.1141 -0.7849 0.6091
vn 0.2570 -0.9664 -0.0000
vn 0.4647 -0.5979 -0.6531
vn 0.2644 -0.7801 -0.5670
vn 0.3198 -0.2197 -0.9217
vn -0.2843 -0.8048 -0.5210
vn -0.0174 -0.2140 -0.9767
vn 0.0000 -0.6507 -0.7594
vn 0.5650 0.0800 -0.8212
vn -0.0000 0.0674 -0.9977
vn 0.5232 0.0723 -0.8491
vn -0.0001 0.0620 -0.9981
vn 0.5487 0.0313 -0.8354
vn 0.0663 0.0409 -0.9970
vn 0.3639 0.5488 -0.7526
vn 0.4523 0.2062 -0.8677
vn -0.3195 -0.7472 -0.5828
vn -0.0310 -0.8507 -0.5247
vn -0.0070 0.0359 -0.9993
vn 0.0751 0.4909 -0.8679
vn 0.0008 -0.2221 -0.9750
vn -0.0177 0.5170 -0.8558
vn 0.0884 0.8622 -0.4988
vn 0.0120 -0.8318 -0.5549
vn 0.0121 -0.7839 -0.6208
vn -0.4647 -0.5979 -0.6531
vn 0.0596 -0.8476 -0.5272
vn -0.1141 -0.7849 -0.6091
vn 0.0013 -0.2030 -0.9792
vn 0.2263 -0.7510 -0.6203
vn -0.3235 -0.1430 -0.9354
vn -0.5650 0.0800 -0.8212
vn -0.5225 0.0714 -0.8497
vn -0.5314 0.0232 -0.8468
vn -0.0007 0.0202 -0.9998
vn -0.0670 0.0453 -0.9967
vn -0.3129 0.5645 -0.7638
vn -0.0466 0.5066 -0.8609
vn -0.4139 0.2609 -0.8721
vn 0.1811 -0.8278 -0.5310
vn -0.0188 0.8797 -0.4751
vn -0.0524 0.8506 -0.5232
vn -0.3823 -0.9240 0.0000
vn 0.2319 -0.0038 0.9727
vn 0.0000 0.0000 1.0000
vn -0.1863 -0.0028 0.9825
vn -0.3815 0.0133 0.9243
vn -0.1918 0.0060 0.9814
vn 0.2095 0.0096 0.9778
vn 0.4556 -0.0072 0.8902
vn 0.3683 0.0672 0.9273
vn 0.1930 0.0038 0.9812
vn 0.3534 0.0060 0.9355
vn -0.1767 -0.0033 0.9843
vn -0.1792 0.0192 0.9836
vn -0.3262 0.0366 0.9446
vn -0.1732 -0.0022 0.9849
vn -0.3465 -0.0067 0.9380
vn 0.2172 0.1035 0.9706
vn 0.3574 0.1997 0.9123
vn 0.1441 0.1418 0.9793
vn 0.2363 0.2662 0.9345
vn -0.0612 0.1245 0.9903
vn 0.1789 0.2806 0.9430
vn -0.0881 0.1515 0.9845
vn -0.3348 -0.0008 0.9423
vn 0.1922 0.0367 0.9807
vn -0.3393 -0.0045 0.9407
vn 0.2087 -0.0151 0.9779
vn -0.3653 -0.0056 0.9309
vn 0.4089 -0.0303 0.9121
vn 0.3938 0.0193 0.9190
vn 0.0000 0.0000 -1.0000
vn 0.2319 -0.0038 -0.9727
vn -0.1863 -0.0028 -0.9825
vn -0.3815 0.0133 -0.9243
vn -0.3653 -0.0056 -0.9309
vn 0.2095 0.0096 -0.9778
vn 0.4556 -0.0072 -0.8902
vn 0.3938 0.0193 -0.9190
vn 0.1930 0.0038 -0.9812
vn 0.3683 0.0672 -0.9273
vn 0.3534 0.0060 -0.9355
vn -0.1767 -0.0033 -0.9843
vn -0.1918 0.0060 -0.9814
vn -0.1792 0.0192 -0.9836
vn -0.3465 -0.0067 -0.9380
vn -0.1732 -0.0022 -0.9849
vn 0.2172 0.1035 -0.9706
vn 0.1922 0.0367 -0.9807
vn 0.1441 0.1418 -0.9793
vn 0.3574 0.1997 -0.9123
vn -0.0612 0.1245 -0.9903
vn 0.2363 0.2662 -0.9345
vn -0.0881 0.1515 -0.9845
vn 0.1789 0.2806 -0.9430
vn -0.3348 -0.0008 -0.9423
vn -0.3393 -0.0045 -0.9407
vn 0.2087 -0.0151 -0.9779
vn 0.4089 -0.0303 -0.9121
vn -0.3262 0.0366 -0.9446
s 1
f 130/1/1 2/2/2 26/3/3
f 116/4/4 6/5/5 121/6/6
f 15/7/7 22/8/8 23/9/9
f 9/10/10 26/3/3 2/2/2
f 8/11/11 37/12/12 9/10/10
f 7/13/13 36/14/14 8/11/11
f 119/15/15 2/2/2 115/16/16
f 111/17/17 9/10/10 119/15/15
f 120/18/18 8/11/11 111/17/17
f 16/19/19 10/20/20 14/21/21
f 4/22/22 114/23/23 10/20/20
f 5/24/24 150/25/25 118/26/26
f 116/4/4 15/7/7 3/27/27
f 1/28/28 14/21/21 13/29/29
f 3/27/27 23/9/9 21/30/30
f 13/29/29 17/31/31 18/32/32
f 14/21/21 10/20/20 17/31/31
f 10/20/20 123/33/33 17/31/31
f 22/8/8 117/34/34 4/22/22
f 5/24/24 125/35/35 22/8/8
f 21/30/30 16/19/19 1/28/28
f 27/36/36 3/27/27 21/30/30
f 3/27/27 34/37/37 6/5/5
f 130/1/1 24/38/38 128/39/39
f 135/40/40 25/41/41 129/42/42
f 46/43/43 29/44/44 41/45/45
f 26/3/3 33/46/46 24/38/38
f 37/12/12 32/47/47 33/46/46
f 36/14/14 31/48/48 32/47/47
f 6/49/5 35/50/49 7/13/13
f 24/38/38 133/51/50 128/39/39
f 33/46/46 112/52/51 133/51/50
f 32/47/47 134/53/52 112/52/51
f 121/54/6 7/13/13 120/18/18
f 23/9/9 4/22/22 16/19/19
f 42/55/53 38/56/54 28/57/55
f 28/57/55 127/58/56 131/59/57
f 29/44/44 132/60/58 149/61/59
f 41/45/45 129/42/42 25/41/41
f 1/28/28 40/62/60 42/55/53
f 46/43/43 25/41/41 21/30/30
f 18/32/32 40/62/60 13/29/29
f 40/62/60 43/63/61 38/56/54
f 38/56/54 137/64/62 127/58/56
f 45/65/63 131/59/57 139/66/64
f 45/65/63 132/60/58 29/44/44
f 42/55/53 21/30/30 1/28/28
f 27/36/36 21/30/30 25/41/41
f 34/37/37 25/41/41 30/67/65
f 35/50/49 30/68/65 31/48/48
f 31/48/48 135/69/40 134/53/52
f 28/57/55 46/43/43 42/55/53
f 29/44/44 136/70/66 41/45/45
f 15/7/7 150/25/25 5/24/24
f 130/1/1 57/71/67 115/16/16
f 61/72/68 116/4/4 121/6/6
f 77/73/69 70/74/70 78/75/71
f 81/76/72 64/77/73 57/71/67
f 92/78/74 63/79/75 64/77/73
f 91/80/76 62/81/77 63/79/75
f 57/71/67 119/15/15 115/16/16
f 64/77/73 111/17/17 119/15/15
f 63/79/75 120/18/18 111/17/17
f 71/82/78 65/83/79 59/84/80
f 59/84/80 114/23/23 117/34/34
f 60/85/81 118/26/26 150/25/25
f 70/74/70 116/4/4 58/86/82
f 56/87/83 69/88/84 71/82/78
f 78/75/71 58/86/82 76/89/85
f 68/90/86 72/91/87 69/88/84
f 69/88/84 72/91/87 65/83/79
f 65/83/79 123/33/33 114/23/23
f 77/73/69 117/34/34 125/35/35
f 60/85/81 125/35/35 118/26/26
f 71/82/78 76/89/85 56/87/83
f 82/92/88 76/89/85 58/86/82
f 89/93/89 58/86/82 61/72/68
f 130/1/1 79/94/90 81/76/72
f 135/40/40 80/95/91 85/96/92
f 101/97/93 84/98/94 100/99/95
f 88/100/96 81/76/72 79/94/90
f 87/101/97 92/78/74 88/100/96
f 86/102/98 91/80/76 87/101/97
f 90/103/99 61/104/68 62/81/77
f 133/51/50 79/94/90 128/39/39
f 112/52/51 88/100/96 133/51/50
f 134/53/52 87/101/97 112/52/51
f 62/81/77 121/54/6 120/18/18
f 59/84/80 78/75/71 71/82/78
f 97/105/100 93/106/101 95/107/102
f 83/108/103 127/58/56 93/106/101
f 84/98/94 149/61/59 132/60/58
f 129/42/42 96/109/104 80/95/91
f 56/87/83 95/107/102 68/90/86
f 80/95/91 101/97/93 76/89/85
f 95/107/102 73/110/105 68/90/86
f 95/107/102 93/106/101 98/111/106
f 93/106/101 137/64/62 98/111/106
f 100/99/95 131/59/57 83/108/103
f 132/60/58 100/99/95 84/98/94
f 76/89/85 97/105/100 56/87/83
f 82/92/88 80/95/91 76/89/85
f 80/95/91 89/93/89 85/96/92
f 85/112/92 90/103/99 86/102/98
f 135/69/40 86/102/98 134/53/52
f 101/97/93 83/108/103 97/105/100
f 136/70/66 84/98/94 96/109/104
f 70/74/70 150/25/25 122/113/107
f 130/1/1 115/16/16 2/2/2
f 116/4/4 3/27/27 6/5/5
f 15/7/7 5/24/24 22/8/8
f 9/10/10 37/12/12 26/3/3
f 8/11/11 36/14/14 37/12/12
f 7/13/13 35/50/49 36/14/14
f 119/15/15 9/10/10 2/2/2
f 111/17/17 8/11/11 9/10/10
f 120/18/18 7/13/13 8/11/11
f 16/19/19 4/22/22 10/20/20
f 4/22/22 117/34/34 114/23/23
f 116/4/4 122/113/107 15/7/7
f 1/28/28 16/19/19 14/21/21
f 3/27/27 15/7/7 23/9/9
f 13/29/29 14/21/21 17/31/31
f 10/20/20 114/23/23 123/33/33
f 22/8/8 125/35/35 117/34/34
f 5/24/24 118/26/26 125/35/35
f 21/30/30 23/9/9 16/19/19
f 3/27/27 27/36/36 34/37/37
f 130/1/1 26/3/3 24/38/38
f 135/40/40 30/67/65 25/41/41
f 46/43/43 45/65/63 29/44/44
f 26/3/3 37/12/12 33/46/46
f 37/12/12 36/14/14 32/47/47
f 36/14/14 35/50/49 31/48/48
f 6/49/5 34/114/37 35/50/49
f 24/38/38 33/46/46 133/51/50
f 33/46/46 32/47/47 112/52/51
f 32/47/47 31/48/48 134/53/52
f 121/54/6 6/49/5 7/13/13
f 23/9/9 22/8/8 4/22/22
f 42/55/53 40/62/60 38/56/54
f 28/57/55 38/56/54 127/58/56
f 41/45/45 136/70/66 129/42/42
f 1/28/28 13/29/29 40/62/60
f 46/43/43 41/45/45 25/41/41
f 18/32/32 43/63/61 40/62/60
f 38/56/54 43/63/61 137/64/62
f 45/65/63 28/57/55 131/59/57
f 45/65/63 139/66/64 132/60/58
f 42/55/53 46/43/43 21/30/30
f 34/37/37 27/36/36 25/41/41
f 35/50/49 34/114/37 30/68/65
f 31/48/48 30/68/65 135/69/40
f 28/57/55 45/65/63 46/43/43
f 29/44/44 149/61/59 136/70/66
f 15/7/7 122/113/107 150/25/25
f 130/1/1 81/76/72 57/71/67
f 61/72/68 58/86/82 116/4/4
f 77/73/69 60/85/81 70/74/70
f 81/76/72 92/78/74 64/77/73
f 92/78/74 91/80/76 63/79/75
f 91/80/76 90/103/99 62/81/77
f 57/71/67 64/77/73 119/15/15
f 64/77/73 63/79/75 111/17/17
f 63/79/75 62/81/77 120/18/18
f 71/82/78 69/88/84 65/83/79
f 59/84/80 65/83/79 114/23/23
f 70/74/70 122/113/107 116/4/4
f 56/87/83 68/90/86 69/88/84
f 78/75/71 70/74/70 58/86/82
f 68/90/86 73/110/105 72/91/87
f 65/83/79 72/91/87 123/33/33
f 77/73/69 59/84/80 117/34/34
f 60/85/81 77/73/69 125/35/35
f 71/82/78 78/75/71 76/89/85
f 89/93/89 82/92/88 58/86/82
f 130/1/1 128/39/39 79/94/90
f 135/40/40 129/42/42 80/95/91
f 101/97/93 96/109/104 84/98/94
f 88/100/96 92/78/74 81/76/72
f 87/101/97 91/80/76 92/78/74
f 86/102/98 90/103/99 91/80/76
f 90/103/99 89/115/89 61/104/68
f 133/51/50 88/100/96 79/94/90
f 112/52/51 87/101/97 88/100/96
f 134/53/52 86/102/98 87/101/97
f 62/81/77 61/104/68 121/54/6
f 59/84/80 77/73/69 78/75/71
f 97/105/100 83/108/103 93/106/101
f 83/108/103 131/59/57 127/58/56
f 129/42/42 136/70/66 96/109/104
f 56/87/83 97/105/100 95/107/102
f 80/95/91 96/109/104 101/97/93
f 95/107/102 98/111/106 73/110/105
f 93/106/101 127/58/56 137/64/62
f 100/99/95 139/66/64 131/59/57
f 132/60/58 139/66/64 100/99/95
f 76/89/85 101/97/93 97/105/100
f 80/95/91 82/92/88 89/93/89
f 85/112/92 89/115/89 90/103/99
f 135/69/40 85/112/92 86/102/98
f 101/97/93 100/99/95 83/108/103
f 136/70/66 149/61/59 84/98/94
f 70/74/70 60/85/81 150/25/25
s 2
f 20/116/108 12/117/109 19/118/109
f 39/119/110 138/120/111 44/121/112
f 18/122/109 20/116/108 19/118/109
f 17/123/113 124/124/114 20/116/108
f 144/125/115 53/126/116 147/127/117
f 52/128/109 54/129/118 55/130/109
f 12/117/109 44/121/112 19/118/109
f 18/122/109 44/121/112 43/131/119
f 43/131/119 138/120/111 137/132/120
f 51/133/121 148/134/122 54/129/118
f 49/135/123 144/125/115 143/136/124
f 48/137/125 143/136/124 141/138/126
f 141/138/126 47/139/127 48/137/125
f 47/139/127 140/140/128 142/141/129
f 145/142/130 47/139/127 142/141/129
f 52/128/109 50/143/131 49/135/123
f 51/133/121 48/137/125 47/139/127
f 146/144/132 47/139/127 145/142/130
f 50/143/131 55/130/109 53/126/116
f 124/124/114 11/145/133 20/116/108
f 11/145/133 55/130/109 12/117/109
f 54/129/118 126/146/134 39/119/110
f 55/130/109 39/119/110 12/117/109
f 113/147/135 53/126/116 11/145/133
f 49/135/123 48/137/125 52/128/109
f 20/116/108 11/145/133 12/117/109
f 39/119/110 126/146/134 138/120/111
f 18/122/109 17/123/113 20/116/108
f 17/123/113 123/148/136 124/124/114
f 144/125/115 50/143/131 53/126/116
f 52/128/109 51/133/121 54/129/118
f 12/117/109 39/119/110 44/121/112
f 18/122/109 19/118/109 44/121/112
f 43/131/119 44/121/112 138/120/111
f 51/133/121 146/144/132 148/134/122
f 49/135/123 50/143/131 144/125/115
f 48/137/125 49/135/123 143/136/124
f 141/138/126 140/140/128 47/139/127
f 51/133/121 52/128/109 48/137/125
f 146/144/132 51/133/121 47/139/127
f 50/143/131 52/128/109 55/130/109
f 124/124/114 113/147/135 11/145/133
f 11/145/133 53/126/116 55/130/109
f 54/129/118 148/134/122 126/146/134
f 55/130/109 54/129/118 39/119/110
f 113/147/135 147/127/117 53/126/116
s 3
f 67/149/137 75/150/138 74/151/137
f 94/152/139 138/120/140 126/146/141
f 73/153/137 75/150/138 72/154/142
f 72/154/142 124/124/143 123/148/144
f 108/155/145 144/125/146 147/127/147
f 109/156/148 107/157/137 110/158/137
f 99/159/149 67/149/137 74/151/137
f 73/153/137 99/159/149 74/151/137
f 98/160/150 138/120/140 99/159/149
f 148/134/151 106/161/152 109/156/148
f 104/162/153 144/125/146 105/163/154
f 103/164/155 143/136/156 104/162/153
f 102/165/157 141/138/158 103/164/155
f 102/165/157 142/141/159 140/140/160
f 145/142/161 142/141/159 102/165/157
f 107/157/137 104/162/153 105/163/154
f 106/161/152 103/164/155 107/157/137
f 146/144/162 102/165/157 106/161/152
f 110/158/137 105/163/154 108/155/145
f 124/124/143 66/166/163 113/147/164
f 66/166/163 110/158/137 108/155/145
f 126/146/141 109/156/148 94/152/139
f 94/152/139 110/158/137 67/149/137
f 113/147/164 108/155/145 147/127/147
f 104/162/153 107/157/137 103/164/155
f 67/149/137 66/166/163 75/150/138
f 94/152/139 99/159/149 138/120/140
f 73/153/137 74/151/137 75/150/138
f 72/154/142 75/150/138 124/124/143
f 108/155/145 105/163/154 144/125/146
f 109/156/148 106/161/152 107/157/137
f 99/159/149 94/152/139 67/149/137
f 73/153/137 98/160/150 99/159/149
f 98/160/150 137/132/165 138/120/140
f 148/134/151 146/144/162 106/161/152
f 104/162/153 143/136/156 144/125/146
f 103/164/155 141/138/158 143/136/156
f 102/165/157 140/140/160 141/138/158
f 106/161/152 102/165/157 103/164/155
f 146/144/162 145/142/161 102/165/157
f 110/158/137 107/157/137 105/163/154
f 124/124/143 75/150/138 66/166/163
f 66/166/163 67/149/137 110/158/137
f 126/146/141 148/134/151 109/156/148
f 94/152/139 109/156/148 110/158/137
f 113/147/164 66/166/163 108/155/145
