# Blender v2.79 (sub 0) OBJ File: 'AssetPackDungeon.blend'
# www.blender.org
o Sword_006_Low_Poly_Cube.007
v 0.476714 1.376879 0.266018
v 0.486951 -1.017460 0.117488
v 0.384993 0.828488 0.307544
v 1.185189 1.154095 0.195567
v 1.150053 0.362309 0.265944
v 0.746567 8.564684 0.107948
v 0.477915 2.634767 0.107948
v 0.785791 3.448018 0.107948
v 0.834616 4.867998 0.107948
v 1.368248 2.884214 0.107948
v 1.506479 3.472411 0.107948
v 1.065410 4.124705 0.107948
v 1.332970 7.088902 0.107948
v 0.330543 -0.687528 0.166666
v 0.164643 0.111484 0.166666
v 0.000000 1.412396 0.277844
v -0.468168 1.469416 0.283691
v -0.218229 -0.914338 0.144062
v -0.399944 0.866536 0.314847
v 0.000000 -0.910165 0.178307
v 0.000000 0.868646 0.307544
v -1.179067 1.691203 0.181344
v -1.030993 0.984600 0.239743
v -0.000000 9.399815 0.107948
v -0.568469 9.589682 0.107948
v -0.701771 2.634767 0.107948
v -0.002831 2.634767 0.107948
v -0.445552 3.616403 0.107948
v -0.818005 3.443902 0.107948
v 0.003888 3.448018 0.107948
v -0.409469 4.867998 0.107948
v 0.000000 4.867998 0.107948
v -0.409469 7.088902 0.107948
v 0.000000 7.088902 0.107948
v 0.000000 -0.673759 0.191416
v 0.000000 0.111484 0.208689
v -0.180651 -0.673759 0.166666
v -0.160070 0.111484 0.166666
v -1.474155 1.798917 0.170836
v -1.477853 1.386550 0.172855
v 0.000000 1.579785 0.107948
v 0.814446 1.666726 0.107948
v -0.694930 1.719967 0.107948
v 0.000000 0.868646 0.208689
v 0.164643 0.868646 0.166666
v -0.164476 0.868646 0.166666
v 0.000000 4.124705 0.107948
v -0.409469 4.124705 0.107948
v 0.482792 1.066881 0.307544
v 0.022007 1.139179 0.307544
v 1.257278 0.728992 0.280630
v -0.522828 1.207857 0.314847
v -1.094672 1.356251 0.250283
v -1.552903 1.751215 0.172855
v 0.000000 -0.281138 0.200053
v 0.247593 -0.288022 0.166666
v -0.170360 -0.281138 0.166666
v 0.000000 0.490065 0.208689
v 0.164643 0.490065 0.166666
v -0.162273 0.490065 0.166666
v 0.476714 1.376879 -0.266018
v 0.486951 -1.017460 -0.117488
v 0.384993 0.828488 -0.307544
v 1.185189 1.154095 -0.195567
v 1.150053 0.362309 -0.265945
v 0.746567 8.564684 -0.107948
v 0.477915 2.634767 -0.107948
v 0.785791 3.448018 -0.107948
v 0.834616 4.867998 -0.107948
v 1.368248 2.884214 -0.107948
v 1.506479 3.472411 -0.107948
v 1.065410 4.124705 -0.107948
v 1.332970 7.088902 -0.107948
v 0.330543 -0.687528 -0.166666
v 0.164643 0.111484 -0.166666
v -0.000000 1.412396 -0.277844
v -0.468168 1.469416 -0.283691
v -0.218229 -0.914338 -0.144062
v -0.399944 0.866536 -0.314847
v -0.000000 -0.910165 -0.178307
v -0.000000 0.868646 -0.307544
v -1.179067 1.691203 -0.181343
v -1.030993 0.984600 -0.239742
v -0.000000 9.399815 -0.107948
v -0.568469 9.589682 -0.107948
v -0.701771 2.634767 -0.107948
v -0.002831 2.634767 -0.107948
v -0.445552 3.616403 -0.107948
v -0.818005 3.443902 -0.107948
v 0.003888 3.448018 -0.107948
v -0.409469 4.867998 -0.107948
v 0.000000 4.867998 -0.107948
v -0.409469 7.088902 -0.107948
v 0.000000 7.088902 -0.107948
v -0.865154 9.942068 0.000000
v 0.182177 9.567959 -0.000000
v -0.000000 -0.673759 -0.191416
v -0.000000 0.111484 -0.208689
v -0.180651 -0.673759 -0.166666
v -0.160070 0.111484 -0.166666
v -1.474155 1.798917 -0.170835
v -1.477853 1.386550 -0.172854
v -0.000000 1.579785 -0.107948
v 0.814446 1.666726 -0.107948
v -0.694930 1.719967 -0.107948
v -0.000000 0.868646 -0.208689
v 0.164643 0.868646 -0.166666
v -0.164477 0.868646 -0.166666
v 0.000000 4.124705 -0.107948
v -0.409469 4.124705 -0.107948
v 0.482792 1.066881 -0.307544
v 0.022007 1.139179 -0.307544
v 1.257278 0.728992 -0.280630
v -0.522828 1.207857 -0.314847
v -1.094672 1.356251 -0.250282
v -1.552903 1.751215 -0.172854
v -0.836746 9.589681 0.000000
v -0.568467 9.867704 0.000000
v 0.890423 -1.156806 -0.000000
v 0.384993 0.828488 -0.000000
v 1.403236 1.162738 -0.000000
v 1.608648 0.019843 -0.000000
v 1.008684 8.727405 -0.000000
v 0.618843 2.634767 -0.000000
v 0.833970 3.166480 -0.000000
v 1.086565 4.867998 -0.000000
v 1.406292 2.634767 -0.000000
v 1.628587 3.484100 -0.000000
v 1.240516 4.210570 -0.000000
v 1.539412 7.088902 -0.000000
v 0.541088 -0.697854 -0.000000
v 0.282136 0.111484 -0.000000
v -0.332693 -0.942300 0.000000
v -0.399944 0.866536 0.000000
v 0.012627 -0.982005 0.000000
v -1.196524 1.751825 0.000000
v -1.030993 0.984600 0.000000
v -0.781912 2.634767 0.000000
v -0.924931 3.533366 0.000000
v -0.297830 -0.673759 0.000000
v -0.252910 0.111484 0.000000
v -1.592625 1.945059 0.000000
v -1.583879 1.487273 0.000000
v 0.993420 1.622231 -0.000000
v -0.816437 1.783483 0.000000
v 0.251879 0.868646 -0.000000
v -0.272344 0.868646 0.000000
v -0.636807 3.751376 0.000000
v -0.558469 4.124705 0.000000
v -0.558469 4.867998 0.000000
v -0.635140 7.088902 0.000000
v 1.614755 0.410974 -0.000000
v -1.651340 1.890340 0.000000
v 1.150053 0.362705 -0.000000
v -1.475077 1.388352 0.000000
v 0.440702 -1.050919 -0.000000
v -0.000000 -0.281138 -0.200053
v 0.381312 -0.293185 -0.000000
v 0.247593 -0.288022 -0.166666
v -0.269846 -0.281138 0.000000
v -0.170361 -0.281138 -0.166666
v 0.256024 0.490065 -0.000000
v -0.000000 0.490065 -0.208689
v 0.164643 0.490065 -0.166666
v -0.257506 0.490065 0.000000
v -0.162273 0.490065 -0.166666
v 1.533073 0.766080 -0.000000
v -1.656466 1.777893 0.000000
vt 0.860798 0.303434
vt 0.802165 0.370461
vt 0.816239 0.289177
vt 0.952908 0.377451
vt 0.926175 0.339307
vt 0.953500 0.361130
vt 0.924655 0.534701
vt 0.896327 0.377962
vt 0.688615 0.640987
vt 0.731426 0.563895
vt 0.717253 0.647069
vt 0.906552 0.307942
vt 0.923269 0.310546
vt 0.866577 0.527364
vt 0.855755 0.385680
vt 0.778331 0.542073
vt 0.802392 0.498168
vt 0.880776 0.787931
vt 0.802682 0.761666
vt 0.829689 0.727931
vt 0.751858 0.705137
vt 0.686153 0.730583
vt 0.854056 0.819600
vt 0.775465 0.799486
vt 0.782968 0.658883
vt 0.867768 0.215027
vt 0.965937 0.263645
vt 0.915723 0.243525
vt 0.967545 0.245500
vt 0.651382 0.711272
vt 0.662009 0.759337
vt 0.627142 0.773610
vt 0.934792 0.284037
vt 0.915336 0.155419
vt 0.913943 0.060434
vt 0.893491 0.076126
vt 0.897966 0.042069
vt 0.755347 0.825138
vt 0.790812 0.899881
vt 0.731232 0.855549
vt 0.697991 0.780888
vt 0.814407 0.869722
vt 0.670973 0.811673
vt 0.851248 0.046991
vt 0.822747 0.018471
vt 0.843178 0.011449
vt 0.847680 0.118478
vt 0.872370 0.130490
vt 0.801872 0.083106
vt 0.839982 0.052976
vt 0.826344 0.212468
vt 0.789370 0.164500
vt 0.776772 0.280494
vt 0.777142 0.139675
vt 0.732671 0.415238
vt 0.723619 0.451048
vt 0.910259 0.864921
vt 0.988698 0.880997
vt 0.933789 0.835693
vt 0.870358 0.914523
vt 0.945795 0.934490
vt 0.925946 0.959370
vt 0.847033 0.943909
vt 0.901831 0.989780
vt 0.965801 0.909405
vt 0.890048 0.889848
vt 0.910259 0.864921
vt 0.968488 0.533601
vt 0.963574 0.637256
vt 0.885846 0.623950
vt 0.959603 0.141807
vt 0.718676 0.755347
vt 0.834097 0.845047
vt 0.860798 0.303434
vt 0.802165 0.370461
vt 0.855755 0.385680
vt 0.926175 0.339307
vt 0.924655 0.534701
vt 0.896327 0.377962
vt 0.717253 0.647069
vt 0.906552 0.307942
vt 0.866577 0.527364
vt 0.835060 0.585274
vt 0.802682 0.761666
vt 0.686153 0.730583
vt 0.751858 0.705137
vt 0.775465 0.799486
vt 0.854056 0.819600
vt 0.867768 0.215027
vt 0.816239 0.289177
vt 0.915723 0.243525
vt 0.934792 0.284037
vt 0.662009 0.759337
vt 0.923269 0.310546
vt 0.915336 0.155419
vt 0.872370 0.130490
vt 0.893491 0.076126
vt 0.755347 0.825138
vt 0.697991 0.780888
vt 0.814407 0.869722
vt 0.851248 0.046991
vt 0.839982 0.052976
vt 0.847680 0.118478
vt 0.826344 0.212468
vt 0.789370 0.164500
vt 0.776772 0.280494
vt 0.732671 0.415238
vt 0.802392 0.498168
vt 0.870358 0.914523
vt 0.945795 0.934490
vt 0.890048 0.889848
vt 0.925946 0.959370
vt 0.965801 0.909405
vt 0.718676 0.755347
vt 0.834097 0.845047
vt 0.856869 0.019101
vt 0.452555 0.658652
vt 0.606364 0.659594
vt 0.539470 0.829725
vt 0.571888 0.849739
vt 0.545504 0.015038
vt 0.533997 0.131983
vt 0.512616 0.132712
vt 0.451288 0.009518
vt 0.454861 0.133947
vt 0.558528 0.194981
vt 0.549475 0.229892
vt 0.456329 0.230086
vt 0.455581 0.310523
vt 0.553971 0.399367
vt 0.455274 0.398420
vt 0.620942 0.178078
vt 0.649570 0.240732
vt 0.630087 0.149531
vt 0.605499 0.323072
vt 0.631317 0.238400
vt 0.586275 0.399976
vt 0.581887 0.311598
vt 0.453061 0.925860
vt 0.404715 0.658485
vt 0.372232 0.135397
vt 0.352280 0.035536
vt 0.371052 0.027883
vt 0.361554 0.227017
vt 0.356283 0.135333
vt 0.403034 0.249459
vt 0.407207 0.310444
vt 0.407157 0.398179
vt 0.376785 0.266528
vt 0.344657 0.238118
vt 0.385590 0.398096
vt 0.387828 0.947634
vt 0.375405 0.658356
vt 0.352931 0.990482
vt 0.388205 0.982350
vt 0.354266 0.948605
vt 0.475655 0.947702
vt 0.633459 0.660073
vt 0.570170 0.009518
vt 0.385392 0.310765
vt 0.452555 0.658652
vt 0.539470 0.829725
vt 0.606364 0.659594
vt 0.545504 0.015038
vt 0.451288 0.009518
vt 0.512616 0.132712
vt 0.456329 0.230086
vt 0.454861 0.133947
vt 0.455581 0.310523
vt 0.553971 0.399367
vt 0.581887 0.311598
vt 0.620942 0.178078
vt 0.631317 0.238400
vt 0.455274 0.398420
vt 0.404715 0.658485
vt 0.453061 0.925860
vt 0.372232 0.135397
vt 0.371052 0.027883
vt 0.361554 0.227017
vt 0.403034 0.249459
vt 0.407207 0.310444
vt 0.407157 0.398179
vt 0.549475 0.229892
vt 0.387828 0.947634
vn 0.0184 0.0585 0.9981
vn 0.0546 0.3269 0.9435
vn 0.0589 0.4309 0.9005
vn -0.3772 -0.9261 -0.0000
vn -0.1360 -0.9879 -0.0740
vn 0.3899 -0.9209 -0.0000
vn -0.1334 -0.6545 0.7442
vn -0.2112 -0.6207 0.7551
vn -0.1942 -0.9810 0.0000
vn 0.8782 -0.4783 -0.0000
vn 0.1260 -0.4907 0.8622
vn -0.0088 -0.7070 0.7071
vn 0.0000 -1.0000 -0.0000
vn 0.3926 0.0692 0.9171
vn 0.0555 0.0767 0.9955
vn 0.8783 0.4781 0.0000
vn 0.4188 0.3315 0.8454
vn 0.9894 0.1452 -0.0000
vn 0.4864 0.0984 0.8682
vn 0.9691 0.2467 -0.0000
vn 0.3625 0.0725 0.9291
vn -0.0649 -0.5412 0.8384
vn 0.5480 0.0503 0.8350
vn -0.0262 -0.0073 0.9996
vn 0.9249 0.3802 -0.0000
vn -0.0536 0.0438 0.9976
vn -0.5019 -0.8649 0.0000
vn -0.0844 -0.7144 0.6946
vn -0.0841 -0.9965 -0.0000
vn -0.1182 -0.9930 -0.0000
vn -0.4452 -0.5046 0.7397
vn -0.8376 -0.5463 0.0000
vn 0.0050 -1.0000 -0.0046
vn -0.3962 -0.6852 0.6112
vn -0.6727 -0.7399 0.0000
vn -0.6485 -0.4469 0.6162
vn -0.9192 -0.3938 0.0000
vn -0.5738 0.0125 0.8189
vn -1.0000 0.0095 0.0000
vn -0.9992 0.0412 0.0000
vn -0.5095 0.0136 0.8604
vn -0.6062 -0.0003 0.7953
vn -0.9961 0.0888 0.0000
vn -0.5378 0.1420 0.8310
vn -0.2317 0.9728 0.0000
vn -0.8761 0.4822 0.0000
vn 0.0569 0.6231 0.7801
vn -0.1290 0.0456 0.9906
vn 0.1668 0.9860 0.0000
vn 0.0662 0.5716 0.8179
vn 0.0407 0.3906 0.9197
vn 0.0775 0.6991 0.7108
vn 0.0671 0.6718 0.7377
vn 0.0015 1.0000 -0.0000
vn 0.2487 0.4260 0.8699
vn 0.7324 0.6809 0.0000
vn 0.6139 0.0018 -0.7894
vn 0.9999 0.0157 -0.0000
vn -0.6070 -0.0032 0.7947
vn -0.0006 -0.0005 1.0000
vn -0.5912 -0.0141 0.8064
vn -0.9999 -0.0118 0.0000
vn 0.6204 0.0000 0.7843
vn -0.0020 -0.0003 1.0000
vn 0.6139 0.0018 0.7894
vn -0.5600 -0.8285 -0.0000
vn 0.5623 -0.8270 -0.0000
vn 1.0000 -0.0088 -0.0000
vn -0.4432 -0.8964 -0.0000
vn -0.0295 -0.0275 0.9992
vn -0.0034 -0.0110 0.9999
vn 0.0184 0.0585 -0.9981
vn 0.0546 0.3269 -0.9435
vn 0.0555 0.0767 -0.9955
vn 0.2727 -0.8606 -0.4302
vn -0.1334 -0.6545 -0.7442
vn -0.2112 -0.6207 -0.7551
vn 0.1260 -0.4907 -0.8622
vn -0.0088 -0.7070 -0.7071
vn 0.3926 0.0692 -0.9171
vn 0.9642 0.2653 -0.0000
vn 0.4864 0.0984 -0.8682
vn -0.0649 -0.5412 -0.8384
vn 0.3625 0.0725 -0.9291
vn -0.0262 -0.0073 -0.9996
vn 0.5480 0.0503 -0.8350
vn -0.0536 0.0438 -0.9976
vn 0.0589 0.4309 -0.9005
vn -0.0844 -0.7144 -0.6946
vn -0.3493 -0.8058 -0.4783
vn -0.4452 -0.5046 -0.7397
vn -0.0004 -0.7674 -0.6411
vn -0.3962 -0.6852 -0.6112
vn -0.1290 0.0456 -0.9906
vn -0.6485 -0.4469 -0.6162
vn -0.5738 0.0125 -0.8189
vn -0.5095 0.0136 -0.8604
vn -0.6062 -0.0003 -0.7953
vn -0.5378 0.1420 -0.8310
vn 0.0662 0.5716 -0.8179
vn 0.0569 0.6231 -0.7801
vn 0.0407 0.3906 -0.9197
vn 0.0775 0.6991 -0.7108
vn 0.0671 0.6718 -0.7377
vn 0.2487 0.4260 -0.8699
vn 0.4188 0.3315 -0.8454
vn -0.6070 -0.0032 -0.7947
vn -0.0020 -0.0003 -1.0000
vn -0.0295 -0.0275 -0.9992
vn -0.0034 -0.0110 -0.9999
vn -0.9965 -0.0838 0.0000
vn 0.0000 -0.0000 1.0000
vn 0.2744 0.0187 0.9614
vn 0.1577 0.1026 0.9821
vn 0.2839 0.1823 0.9414
vn 0.3469 0.1276 0.9292
vn 0.6053 -0.0182 0.7958
vn 0.2526 -0.0048 0.9676
vn 0.1150 -0.3430 0.9323
vn 0.0137 -0.0658 0.9977
vn 0.1686 0.0059 0.9857
vn 0.1791 -0.2869 0.9411
vn 0.6603 0.0816 0.7465
vn 0.0956 -0.3830 0.9188
vn 0.4589 0.1933 0.8672
vn 0.4149 0.0599 0.9079
vn 0.4035 0.0167 0.9148
vn 0.2034 0.0917 0.9748
vn 0.1286 0.2009 0.9711
vn -0.2193 -0.0104 0.9756
vn -0.4278 -0.0222 0.9036
vn -0.6778 -0.0019 0.7352
vn -0.2852 -0.0021 0.9585
vn -0.4208 0.1200 0.8992
vn -0.7999 -0.0430 0.5986
vn -0.1177 0.0816 0.9897
vn -0.2910 0.0231 0.9564
vn -0.3084 0.0000 0.9513
vn -0.3848 0.2520 0.8880
vn -0.5648 0.2671 0.7808
vn -0.5815 -0.0005 0.8135
vn -0.1082 0.1422 0.9839
vn -0.4293 -0.0215 0.9029
vn -0.1473 0.1742 0.9736
vn 0.1070 0.3651 0.9248
vn -0.3731 -0.0301 0.9273
vn 0.2355 0.3225 0.9168
vn 0.4633 0.0229 0.8859
vn 0.5421 0.2005 0.8161
vn -0.5855 0.0643 0.8081
vn -0.0000 -0.0000 -1.0000
vn 0.1577 0.1026 -0.9821
vn 0.2744 0.0187 -0.9614
vn 0.2839 0.1823 -0.9414
vn 0.4633 0.0229 -0.8859
vn 0.3469 0.1276 -0.9292
vn 0.6053 -0.0182 -0.7958
vn 0.5421 0.2005 -0.8161
vn 0.2526 -0.0048 -0.9676
vn 0.1150 -0.3430 -0.9323
vn 0.1686 0.0059 -0.9857
vn 0.2034 0.0917 -0.9748
vn 0.1791 -0.2869 -0.9411
vn 0.0956 -0.3830 -0.9188
vn 0.6603 0.0816 -0.7465
vn 0.4149 0.0599 -0.9079
vn 0.4589 0.1933 -0.8672
vn 0.4035 0.0167 -0.9148
vn -0.2193 -0.0104 -0.9756
vn 0.1286 0.2009 -0.9711
vn -0.6778 -0.0019 -0.7352
vn -0.4278 -0.0222 -0.9036
vn -0.2852 -0.0021 -0.9585
vn -0.7999 -0.0430 -0.5986
vn -0.4208 0.1200 -0.8992
vn -0.1177 0.0816 -0.9897
vn -0.2910 0.0231 -0.9564
vn -0.3084 0.0000 -0.9513
vn 0.0137 -0.0658 -0.9977
vn -0.3848 0.2520 -0.8880
vn -0.5648 0.2671 -0.7808
vn -0.5855 0.0643 -0.8081
vn -0.5815 -0.0005 -0.8135
vn -0.4293 -0.0215 -0.9029
vn -0.1082 0.1422 -0.9839
vn -0.1473 0.1742 -0.9736
vn 0.1070 0.3651 -0.9248
vn -0.3731 -0.0301 -0.9273
vn 0.2355 0.3225 -0.9168
s 1
f 50/1/1 1/2/2 16/3/3
f 120/4/4 45/5/5 146/6/6
f 120/4/4 5/7/7 3/8/8
f 156/9/9 119/10/10 2/11/11
f 45/5/5 21/12/12 44/13/13
f 3/8/8 51/14/14 49/15/15
f 51/14/14 121/16/16 4/17/17
f 132/18/18 56/19/19 158/20/20
f 14/21/21 20/22/22 2/11/11
f 15/23/23 55/24/24 56/19/19
f 131/25/25 14/21/21 2/11/11
f 16/3/3 52/26/26 50/1/1
f 147/27/27 19/28/28 134/29/29
f 135/30/30 18/31/31 133/32/32
f 46/33/33 21/12/12 19/28/28
f 52/26/26 23/34/34 19/28/28
f 155/35/35 40/36/36 143/37/37
f 57/38/38 141/39/39 160/40/40
f 20/22/22 37/41/41 18/31/31
f 55/24/24 38/42/42 57/38/38
f 18/31/31 140/43/43 133/32/32
f 54/44/44 142/45/45 153/46/46
f 22/47/47 54/44/44 53/48/48
f 136/49/49 39/50/50 22/47/47
f 17/51/51 43/52/52 22/47/47
f 41/53/53 17/51/51 16/3/3
f 22/47/47 145/54/54 136/49/49
f 1/2/2 4/17/17 42/55/55
f 1/2/2 41/53/53 16/3/3
f 4/17/17 144/56/56 42/55/55
f 164/57/57 146/58/6 162/59/58
f 60/60/59 44/61/60 46/62/61
f 165/63/62 46/62/61 147/64/27
f 45/65/63 58/66/64 59/67/65
f 53/48/48 40/36/36 23/34/34
f 54/44/44 143/37/37 40/36/36
f 17/51/51 53/48/48 52/26/26
f 50/1/1 19/28/28 21/12/12
f 49/15/15 4/17/17 1/2/2
f 3/8/8 50/1/1 21/12/12
f 5/7/7 154/68/66 122/69/67
f 23/34/34 134/29/29 19/28/28
f 152/70/68 5/7/7 122/69/67
f 137/71/69 40/36/36 155/35/35
f 156/9/9 20/22/22 135/30/30
f 119/10/10 131/25/25 2/11/11
f 35/72/70 57/38/38 37/41/41
f 37/41/41 160/40/40 140/43/43
f 56/19/19 35/72/70 14/21/21
f 158/20/20 14/21/21 131/25/25
f 162/59/58 15/23/23 132/18/18
f 59/67/65 36/73/71 15/23/23
f 38/42/42 165/63/62 141/39/39
f 38/42/42 58/66/64 60/60/59
f 112/74/72 61/75/73 111/76/74
f 107/77/75 120/4/4 146/6/6
f 65/78/76 120/4/4 63/79/77
f 156/9/9 62/80/78 119/10/10
f 107/77/75 81/81/79 63/79/77
f 113/82/80 63/79/77 111/76/74
f 113/82/80 121/16/16 167/83/81
f 159/84/82 132/18/18 158/20/20
f 80/85/83 74/86/84 62/80/78
f 157/87/85 75/88/86 159/84/82
f 131/25/25 62/80/78 74/86/84
f 114/89/87 76/90/88 112/74/72
f 147/27/27 79/91/89 108/92/90
f 135/30/30 78/93/91 80/85/83
f 108/92/90 81/81/79 106/94/92
f 114/89/87 83/95/93 115/96/94
f 155/35/35 143/37/37 102/97/95
f 141/39/39 161/98/96 160/40/40
f 99/99/97 80/85/83 78/93/91
f 100/100/98 157/87/85 161/98/96
f 140/43/43 78/93/91 133/32/32
f 116/101/99 142/45/45 101/102/100
f 116/101/99 82/103/101 115/96/94
f 101/102/100 136/49/49 82/103/101
f 77/104/102 82/103/101 105/105/103
f 77/104/102 103/106/104 76/90/88
f 82/103/101 145/54/54 105/105/103
f 61/75/73 104/107/105 64/108/106
f 103/106/104 61/75/73 76/90/88
f 64/108/106 144/56/56 121/16/16
f 166/109/107 106/110/92 163/111/108
f 165/63/62 108/112/90 166/109/107
f 163/111/108 107/113/75 164/57/57
f 102/97/95 115/96/94 83/95/93
f 143/37/37 116/101/99 102/97/95
f 77/104/102 115/96/94 82/103/101
f 79/91/89 112/74/72 81/81/79
f 111/76/74 64/108/106 113/82/80
f 112/74/72 63/79/77 81/81/79
f 65/78/76 122/69/67 154/68/66
f 134/29/29 83/95/93 79/91/89
f 152/70/68 65/78/76 113/82/80
f 137/71/69 102/97/95 83/95/93
f 80/85/83 156/9/9 135/30/30
f 119/10/10 62/80/78 131/25/25
f 161/98/96 97/114/109 99/99/97
f 160/40/40 99/99/97 140/43/43
f 97/114/109 159/84/82 74/86/84
f 74/86/84 158/20/20 131/25/25
f 75/88/86 162/59/58 132/18/18
f 98/115/110 164/57/57 75/88/86
f 165/63/62 100/100/98 141/39/39
f 100/100/98 163/111/108 98/115/110
f 146/58/6 59/67/65 162/59/58
f 50/1/1 49/15/15 1/2/2
f 120/4/4 3/8/8 45/5/5
f 120/4/4 154/68/66 5/7/7
f 45/5/5 3/8/8 21/12/12
f 3/8/8 5/7/7 51/14/14
f 51/14/14 167/83/81 121/16/16
f 132/18/18 15/23/23 56/19/19
f 14/21/21 35/72/70 20/22/22
f 15/23/23 36/73/71 55/24/24
f 16/3/3 17/51/51 52/26/26
f 147/27/27 46/33/33 19/28/28
f 135/30/30 20/22/22 18/31/31
f 46/33/33 44/13/13 21/12/12
f 52/26/26 53/48/48 23/34/34
f 57/38/38 38/42/42 141/39/39
f 20/22/22 35/72/70 37/41/41
f 55/24/24 36/73/71 38/42/42
f 18/31/31 37/41/41 140/43/43
f 54/44/44 39/50/50 142/45/45
f 22/47/47 39/50/50 54/44/44
f 136/49/49 142/45/45 39/50/50
f 41/53/53 43/52/52 17/51/51
f 22/47/47 43/52/52 145/54/54
f 1/2/2 42/55/55 41/53/53
f 4/17/17 121/16/16 144/56/56
f 164/57/57 107/113/75 146/58/6
f 60/60/59 58/66/64 44/61/60
f 165/63/62 60/60/59 46/62/61
f 45/65/63 44/61/60 58/66/64
f 53/48/48 54/44/44 40/36/36
f 54/44/44 153/46/46 168/116/111
f 17/51/51 22/47/47 53/48/48
f 50/1/1 52/26/26 19/28/28
f 49/15/15 51/14/14 4/17/17
f 3/8/8 49/15/15 50/1/1
f 23/34/34 137/71/69 134/29/29
f 152/70/68 51/14/14 5/7/7
f 137/71/69 23/34/34 40/36/36
f 156/9/9 2/11/11 20/22/22
f 35/72/70 55/24/24 57/38/38
f 37/41/41 57/38/38 160/40/40
f 56/19/19 55/24/24 35/72/70
f 158/20/20 56/19/19 14/21/21
f 162/59/58 59/67/65 15/23/23
f 59/67/65 58/66/64 36/73/71
f 38/42/42 60/60/59 165/63/62
f 38/42/42 36/73/71 58/66/64
f 112/74/72 76/90/88 61/75/73
f 107/77/75 63/79/77 120/4/4
f 65/78/76 154/68/66 120/4/4
f 107/77/75 106/94/92 81/81/79
f 113/82/80 65/78/76 63/79/77
f 113/82/80 64/108/106 121/16/16
f 159/84/82 75/88/86 132/18/18
f 80/85/83 97/114/109 74/86/84
f 157/87/85 98/115/110 75/88/86
f 114/89/87 77/104/102 76/90/88
f 147/27/27 134/29/29 79/91/89
f 135/30/30 133/32/32 78/93/91
f 108/92/90 79/91/89 81/81/79
f 114/89/87 79/91/89 83/95/93
f 141/39/39 100/100/98 161/98/96
f 99/99/97 97/114/109 80/85/83
f 100/100/98 98/115/110 157/87/85
f 140/43/43 99/99/97 78/93/91
f 116/101/99 153/46/46 142/45/45
f 116/101/99 101/102/100 82/103/101
f 101/102/100 142/45/45 136/49/49
f 77/104/102 105/105/103 103/106/104
f 82/103/101 136/49/49 145/54/54
f 103/106/104 104/107/105 61/75/73
f 64/108/106 104/107/105 144/56/56
f 166/109/107 108/112/90 106/110/92
f 165/63/62 147/64/27 108/112/90
f 163/111/108 106/110/92 107/113/75
f 102/97/95 116/101/99 115/96/94
f 168/116/111 153/46/46 116/101/99
f 77/104/102 114/89/87 115/96/94
f 79/91/89 114/89/87 112/74/72
f 111/76/74 61/75/73 64/108/106
f 112/74/72 111/76/74 63/79/77
f 134/29/29 137/71/69 83/95/93
f 152/70/68 122/69/67 65/78/76
f 137/71/69 155/35/35 102/97/95
f 80/85/83 62/80/78 156/9/9
f 161/98/96 157/87/85 97/114/109
f 160/40/40 161/98/96 99/99/97
f 97/114/109 157/87/85 159/84/82
f 74/86/84 159/84/82 158/20/20
f 75/88/86 164/57/57 162/59/58
f 98/115/110 163/111/108 164/57/57
f 165/63/62 166/109/107 100/100/98
f 100/100/98 166/109/107 163/111/108
f 146/58/6 45/65/63 59/67/65
f 152/70/68 113/82/80 167/83/81
f 167/83/81 51/14/14 152/70/68
f 143/37/37 168/116/111 116/101/99
f 143/37/37 54/44/44 168/116/111
s 2
f 34/117/112 13/118/113 6/119/114
f 13/118/113 123/120/115 6/119/114
f 42/121/116 124/122/117 7/123/118
f 41/124/112 7/123/118 27/125/112
f 7/123/118 125/126/119 8/127/120
f 7/123/118 30/128/112 27/125/112
f 47/129/112 9/130/121 32/131/112
f 125/126/119 10/132/122 8/127/120
f 128/133/123 10/132/122 127/134/124
f 129/135/125 11/136/126 128/133/123
f 126/137/127 12/138/128 129/135/125
f 126/137/127 13/118/113 9/130/121
f 9/130/121 34/117/112 32/131/112
f 24/139/129 33/140/130 34/117/112
f 26/141/131 145/142/132 43/143/133
f 27/125/112 43/143/133 41/124/112
f 29/144/134 138/145/135 26/141/131
f 26/141/131 28/146/136 29/144/134
f 30/128/112 26/141/131 27/125/112
f 32/131/112 48/147/137 47/129/112
f 34/117/112 31/148/138 32/131/112
f 47/129/112 28/146/136 30/128/112
f 8/127/120 47/129/112 30/128/112
f 8/127/120 11/136/126 12/138/128
f 29/144/134 148/149/139 139/150/140
f 48/147/137 148/149/139 28/146/136
f 150/151/141 48/147/137 31/148/138
f 33/140/130 150/151/141 31/148/138
f 25/152/142 151/153/143 33/140/130
f 95/154/144 25/152/142 118/155/145
f 11/136/126 8/127/120 10/132/122
f 117/156/146 25/152/142 95/154/144
f 118/155/145 24/139/129 96/157/147
f 6/119/114 24/139/129 34/117/112
f 96/157/147 6/119/114 123/120/115
f 13/118/113 130/158/148 123/120/115
f 42/121/116 144/159/149 124/122/117
f 41/124/112 42/121/116 7/123/118
f 7/123/118 124/122/117 125/126/119
f 7/123/118 8/127/120 30/128/112
f 47/129/112 12/138/128 9/130/121
f 125/126/119 127/134/124 10/132/122
f 128/133/123 11/136/126 10/132/122
f 129/135/125 12/138/128 11/136/126
f 126/137/127 9/130/121 12/138/128
f 126/137/127 130/158/148 13/118/113
f 9/130/121 13/118/113 34/117/112
f 24/139/129 25/152/142 33/140/130
f 26/141/131 138/145/135 145/142/132
f 27/125/112 26/141/131 43/143/133
f 29/144/134 139/150/140 138/145/135
f 30/128/112 28/146/136 26/141/131
f 32/131/112 31/148/138 48/147/137
f 34/117/112 33/140/130 31/148/138
f 47/129/112 48/147/137 28/146/136
f 8/127/120 12/138/128 47/129/112
f 29/144/134 28/146/136 148/149/139
f 48/147/137 149/160/150 148/149/139
f 150/151/141 149/160/150 48/147/137
f 33/140/130 151/153/143 150/151/141
f 25/152/142 117/156/146 151/153/143
f 118/155/145 25/152/142 24/139/129
f 96/157/147 24/139/129 6/119/114
s 3
f 94/161/151 66/162/152 73/163/153
f 73/163/153 123/120/154 130/158/155
f 104/164/156 124/122/157 144/159/158
f 103/165/151 67/166/159 104/164/156
f 67/166/159 125/126/160 124/122/157
f 90/167/151 67/166/159 87/168/151
f 109/169/151 69/170/161 72/171/162
f 125/126/160 70/172/163 127/134/164
f 70/172/163 128/133/165 127/134/164
f 71/173/166 129/135/167 128/133/165
f 126/137/168 72/171/162 69/170/161
f 73/163/153 126/137/168 69/170/161
f 94/161/151 69/170/161 92/174/151
f 93/175/169 84/176/170 94/161/151
f 145/142/171 86/177/172 105/178/173
f 105/178/173 87/168/151 103/165/151
f 138/145/174 89/179/175 86/177/172
f 86/177/172 89/179/175 88/180/176
f 86/177/172 90/167/151 87/168/151
f 110/181/177 92/174/151 109/169/151
f 91/182/178 94/161/151 92/174/151
f 88/180/176 109/169/151 90/167/151
f 109/169/151 68/183/179 90/167/151
f 68/183/179 72/171/162 71/173/166
f 148/149/180 89/179/175 139/150/181
f 110/181/177 148/149/180 149/160/182
f 110/181/177 150/151/183 91/182/178
f 93/175/169 150/151/183 151/153/184
f 151/153/184 85/184/185 93/175/169
f 95/154/186 118/155/187 85/184/185
f 71/173/166 70/172/163 68/183/179
f 117/156/188 95/154/186 85/184/185
f 118/155/187 84/176/170 85/184/185
f 66/162/152 94/161/151 84/176/170
f 66/162/152 96/157/189 123/120/154
f 73/163/153 66/162/152 123/120/154
f 104/164/156 67/166/159 124/122/157
f 103/165/151 87/168/151 67/166/159
f 67/166/159 68/183/179 125/126/160
f 90/167/151 68/183/179 67/166/159
f 109/169/151 92/174/151 69/170/161
f 125/126/160 68/183/179 70/172/163
f 70/172/163 71/173/166 128/133/165
f 71/173/166 72/171/162 129/135/167
f 126/137/168 129/135/167 72/171/162
f 73/163/153 130/158/155 126/137/168
f 94/161/151 73/163/153 69/170/161
f 93/175/169 85/184/185 84/176/170
f 145/142/171 138/145/174 86/177/172
f 105/178/173 86/177/172 87/168/151
f 138/145/174 139/150/181 89/179/175
f 86/177/172 88/180/176 90/167/151
f 110/181/177 91/182/178 92/174/151
f 91/182/178 93/175/169 94/161/151
f 88/180/176 110/181/177 109/169/151
f 109/169/151 72/171/162 68/183/179
f 148/149/180 88/180/176 89/179/175
f 110/181/177 88/180/176 148/149/180
f 110/181/177 149/160/182 150/151/183
f 93/175/169 91/182/178 150/151/183
f 151/153/184 117/156/188 85/184/185
f 118/155/187 96/157/189 84/176/170
f 66/162/152 84/176/170 96/157/189
